<?xml version="1.0" standalone="no"?>
<!DOCTYPE svg PUBLIC "-//W3C//DTD SVG 1.1//EN" "http://www.w3.org/Graphics/SVG/1.1/DTD/svg11.dtd" >
<svg xmlns="http://www.w3.org/2000/svg">
<metadata>Generated by IcoMoon</metadata>
<defs>
<font id="leedo" horiz-adv-x="1024">
<font-face units-per-em="1024" ascent="960" descent="-64" />
<missing-glyph horiz-adv-x="1024" />
<glyph unicode="&#x20;" horiz-adv-x="512" d="" />
<glyph unicode="&#xe900;" glyph-name="user-shape" d="M512.001 447.994c70.685 0 131.017 25.009 181.011 75.005 49.999 49.996 75.003 110.328 75.003 181.004 0 70.664-25.004 130.998-75.003 181.006-50.010 49.994-110.344 74.991-181.011 74.991s-131.010-24.997-181.004-74.991c-50.003-50.008-75.005-110.34-75.005-181.006 0-70.676 25.002-131.007 75.005-181.004 50.008-49.996 110.335-75.005 181.004-75.005zM979.001 177.664c-1.56 22.438-4.675 46.667-9.333 72.67-4.668 26.003-10.564 50.104-17.677 72.336-7.113 22.216-16.67 43.885-28.67 64.999-11.995 21.111-25.772 39.108-41.338 54.003-15.566 14.891-34.562 26.772-56.99 35.659-22.456 8.885-47.236 13.336-74.349 13.336-3.995 0-13.331-4.778-28-14.335-14.655-9.557-31.213-20.226-49.658-32.009-18.442-11.762-42.456-22.438-72-31.979-29.557-9.557-59.22-14.337-89.009-14.337-29.777 0-59.442 4.78-88.995 14.337-29.55 9.541-53.557 20.217-72.002 31.979-18.442 11.783-34.996 22.449-49.66 32.009-14.671 9.557-24 14.335-28 14.335-27.11 0-51.89-4.451-74.333-13.336-22.447-8.887-41.445-20.778-57.004-35.659-15.554-14.895-29.333-32.892-41.329-54.003-11.995-21.114-21.55-42.793-28.663-64.999-7.11-22.232-13.002-46.333-17.667-72.336-4.67-26.003-7.78-50.216-9.338-72.67-1.555-22.454-2.33-45.455-2.33-69.011 0-53.324 16.226-95.446 48.668-126.337 32.448-30.879 75.563-46.316 129.34-46.316h582.679c53.772 0 96.882 15.437 129.335 46.316 32.46 30.891 48.675 73.006 48.675 126.337-0.005 23.556-0.78 46.557-2.354 69.011z" />
<glyph unicode="&#xe901;" glyph-name="chevron-up" d="M562.694 718.856l440.291-440.311c28.022-28.009 28.022-73.406 0-101.401-27.997-27.997-73.406-27.997-101.401 0l-389.583 389.595-389.581-389.595c-28.011-27.997-73.415-27.997-101.411 0-28.009 27.997-28.009 73.406 0 101.415l440.298 440.311c14.005 13.992 32.342 20.983 50.694 20.983 18.345 0 36.695-7.005 50.694-20.997z" />
<glyph unicode="&#xe902;" glyph-name="chevron-down" d="M511.999 156.146c-18.352 0-36.702 7.007-50.694 20.992l-440.297 440.301c-28.009 28.009-28.009 73.42 0 101.417 27.997 27.997 73.399 27.997 101.41 0l389.58-389.603 389.583 389.589c28.009 27.997 73.406 27.997 101.401 0 28.022-27.997 28.022-73.408 0-101.417l-440.29-440.301c-13.999-13.987-32.349-20.979-50.694-20.979z" />
<glyph unicode="&#xe903;" glyph-name="cross" d="M633.703 448l365.094 365.094c33.607 33.607 33.607 88.095 0 121.698-33.607 33.607-88.091 33.607-121.698 0l-365.099-365.099-365.099 365.104c-33.607 33.607-88.091 33.607-121.698 0-33.603-33.607-33.603-88.095 0-121.698l365.099-365.094-365.099-365.099c-33.603-33.607-33.603-88.095 0-121.698 33.607-33.607 88.091-33.607 121.698 0l365.099 365.099 365.099-365.099c33.603-33.607 88.091-33.607 121.698 0s33.607 88.091 0 121.698l-365.094 365.094z" />
<glyph unicode="&#xe904;" glyph-name="link" d="M624.794 560.87c-12.13 12.202-25.579 23.018-40.099 32.25-38.457 24.626-83.165 37.711-128.831 37.711-63.383 0.118-124.19-25.065-168.93-69.961l-217.049-217.219c-44.664-44.75-69.767-105.381-69.807-168.606-0.084-131.936 106.801-238.959 238.737-239.043 63.285-0.22 124.036 24.844 168.76 69.619l179.168 179.168c3.255 3.227 5.073 7.631 5.047 12.214-0.054 9.424-7.739 17.019-17.163 16.965h-6.825c-37.433-0.132-74.533 7.057-109.206 21.158-6.389 2.63-13.732 1.146-18.599-3.753l-128.831-129.001c-40.005-40.005-104.865-40.005-144.87 0s-40.005 104.865 0 144.87l217.903 217.731c39.973 39.923 104.727 39.923 144.7 0 26.939-25.353 68.96-25.353 95.897 0 11.59 11.6 18.617 26.985 19.794 43.342 1.246 19.546-5.963 38.689-19.796 52.555zM953.951 890.027c-93.297 93.297-244.562 93.297-337.859 0l-178.998-178.826c-4.915-4.939-6.333-12.368-3.583-18.771 2.718-6.421 9.068-10.542 16.039-10.408h6.313c37.389 0.068 74.429-7.177 109.036-21.33 6.389-2.63 13.732-1.146 18.599 3.753l128.489 128.319c40.005 40.005 104.865 40.005 144.87 0s40.005-104.865 0-144.87l-160.057-159.885-1.366-1.536-55.968-55.628c-39.973-39.923-104.727-39.923-144.7 0-26.939 25.353-68.96 25.353-95.897 0-11.664-11.688-18.697-27.207-19.794-43.682-1.248-19.546 5.961-38.689 19.794-52.557 19.75-19.834 42.858-36.010 68.254-47.777 3.583-1.706 7.167-3.071 10.75-4.607s7.337-2.73 10.92-4.095c3.583-1.366 7.337-2.56 10.92-3.583l10.068-2.73c6.825-1.706 13.652-3.071 20.646-4.265 8.426-1.252 16.913-2.050 25.425-2.39h12.968l10.238 1.194c3.753 0.17 7.679 1.024 12.116 1.024h5.801l11.774 1.706 5.461 1.024 9.896 2.048h1.878c41.914 10.528 80.188 32.23 110.742 62.795l217.219 217.219c93.303 93.297 93.303 244.562 0.006 337.859z" />
<glyph unicode="&#xe905;" glyph-name="search" d="M991.284 27.298l-243.714 253.474c62.663 74.491 96.997 168.216 96.997 265.788 0 227.967-185.473 413.44-413.44 413.44s-413.44-185.473-413.44-413.44 185.473-413.44 413.44-413.44c85.582 0 167.137 25.813 236.865 74.815l245.565-255.398c10.264-10.66 24.069-16.538 38.863-16.538 14.003 0 27.287 5.339 37.371 15.046 21.427 20.618 22.11 54.808 1.492 76.253zM431.128 852.146c168.504 0 305.586-137.082 305.586-305.586s-137.082-305.586-305.586-305.586-305.586 137.082-305.586 305.586 137.082 305.586 305.586 305.586z" />
<glyph unicode="&#xe906;" glyph-name="keyboard-right-arrow-button" d="M315.733 960l-119.467-119.467 392.533-392.533-392.533-392.533 119.467-119.467 512 512z" />
<glyph unicode="&#xe907;" glyph-name="wireframe" d="M912 874c-11.040 0-20-8.96-20-20s8.96-20 20-20c11.040 0 20 8.96 20 20s-8.96 20-20 20zM792 874c-11.040 0-20-8.96-20-20s8.96-20 20-20c11.040 0 20 8.96 20 20s-8.96 20-20 20zM672 874c-11.040 0-20-8.96-20-20s8.96-20 20-20c11.040 0 20 8.96 20 20s-8.96 20-20 20zM552 342c-11.040 0-20-8.96-20-20s8.96-20 20-20c11.040 0 20 8.96 20 20s-8.96 20-20 20zM552 222c-11.040 0-20-8.96-20-20s8.96-20 20-20c11.040 0 20 8.96 20 20s-8.96 20-20 20zM552 102c-11.040 0-20-8.96-20-20s8.96-20 20-20c11.040 0 20 8.96 20 20s-8.96 20-20 20zM964 960h-904c-33.084 0-60-26.916-60-60v-904c0-33.084 26.916-60 60-60h904c33.084 0 60 26.916 60 60v904c0 33.084-26.916 60-60 60zM984-4c0-11.028-8.972-20-20-20h-904c-11.028 0-20 8.972-20 20v752h944v-752zM984 788h-944v112c0 11.028 8.972 20 20 20h904c11.028 0 20-8.972 20-20v-112zM872 668h-720c-0.074 0-0.144-0.010-0.218-0.010-0.456-0.004-0.906-0.034-1.356-0.068-0.22-0.018-0.442-0.028-0.66-0.052-0.414-0.046-0.822-0.116-1.23-0.188-0.256-0.044-0.512-0.084-0.764-0.138-0.346-0.076-0.686-0.17-1.026-0.264-0.3-0.082-0.604-0.158-0.898-0.254-0.286-0.092-0.566-0.204-0.848-0.31-0.328-0.124-0.66-0.242-0.98-0.382-0.26-0.114-0.51-0.244-0.764-0.368-0.322-0.156-0.646-0.31-0.958-0.482-0.268-0.148-0.526-0.316-0.786-0.478-0.278-0.172-0.558-0.336-0.826-0.52-0.296-0.204-0.58-0.428-0.864-0.648-0.214-0.166-0.434-0.322-0.642-0.496-0.316-0.264-0.614-0.548-0.914-0.832-0.16-0.152-0.328-0.296-0.482-0.454-0.304-0.308-0.59-0.634-0.876-0.964-0.136-0.156-0.278-0.306-0.408-0.466-0.26-0.32-0.502-0.656-0.742-0.994-0.14-0.194-0.286-0.384-0.418-0.584-0.2-0.3-0.38-0.614-0.564-0.928-0.154-0.262-0.312-0.52-0.454-0.79-0.138-0.264-0.262-0.538-0.39-0.808-0.16-0.34-0.322-0.68-0.464-1.030-0.094-0.23-0.172-0.468-0.258-0.704-0.144-0.4-0.284-0.802-0.404-1.214-0.022-0.076-0.054-0.148-0.074-0.224-0.048-0.172-0.072-0.344-0.116-0.516-0.098-0.39-0.19-0.78-0.264-1.178-0.060-0.322-0.104-0.644-0.148-0.966-0.042-0.316-0.086-0.632-0.114-0.952-0.036-0.41-0.052-0.816-0.062-1.224-0.006-0.17-0.028-0.34-0.028-0.514v-200c0-11.044 8.954-20 20-20h719.924c0.028 0 0.058-0.006 0.086-0.006 0.648 0 1.29 0.042 1.928 0.104 0.128 0.012 0.254 0.032 0.38 0.048 0.48 0.056 0.954 0.128 1.426 0.218 0.202 0.038 0.402 0.080 0.602 0.126 0.39 0.086 0.776 0.188 1.158 0.298 0.222 0.064 0.444 0.124 0.662 0.194 0.386 0.126 0.764 0.27 1.14 0.416 0.184 0.072 0.374 0.134 0.556 0.212 0.52 0.222 1.028 0.47 1.528 0.736 0.206 0.11 0.402 0.232 0.602 0.348 0.322 0.186 0.642 0.376 0.952 0.58 0.192 0.126 0.38 0.258 0.566 0.39 0.318 0.224 0.63 0.456 0.934 0.698 0.156 0.126 0.314 0.25 0.466 0.38 0.346 0.292 0.68 0.6 1.006 0.916 0.098 0.096 0.2 0.186 0.298 0.284 0.858 0.866 1.642 1.812 2.336 2.834 0.058 0.084 0.108 0.174 0.164 0.258 0.268 0.408 0.522 0.824 0.76 1.252 0.106 0.19 0.202 0.386 0.302 0.58 0.168 0.328 0.33 0.66 0.482 1 0.112 0.25 0.218 0.504 0.318 0.76 0.116 0.296 0.226 0.596 0.33 0.9 0.098 0.288 0.194 0.574 0.28 0.866 0.026 0.086 0.058 0.168 0.084 0.256 0.048 0.172 0.072 0.344 0.116 0.516 0.098 0.39 0.19 0.78 0.264 1.178 0.060 0.322 0.104 0.644 0.148 0.966 0.042 0.316 0.086 0.632 0.114 0.952 0.036 0.41 0.052 0.816 0.062 1.224 0.004 0.174 0.026 0.342 0.026 0.518v199.998c0 11.044-8.954 20-20 20zM172 468v153.688l553.278-153.688h-553.278zM852 474.312l-553.278 153.688h553.278v-153.688zM432 342h-280c-0.216 0-0.424-0.026-0.638-0.032-0.384-0.012-0.768-0.024-1.152-0.058-0.32-0.028-0.634-0.076-0.948-0.118-0.324-0.044-0.648-0.088-0.97-0.148-0.342-0.064-0.676-0.144-1.010-0.226-0.294-0.072-0.588-0.142-0.88-0.226-0.332-0.096-0.658-0.208-0.984-0.322-0.292-0.102-0.582-0.204-0.87-0.318-0.302-0.122-0.598-0.256-0.894-0.392-0.302-0.138-0.602-0.278-0.898-0.432-0.268-0.14-0.528-0.29-0.788-0.442-0.306-0.178-0.608-0.356-0.906-0.55-0.244-0.16-0.48-0.332-0.718-0.502-0.288-0.208-0.576-0.416-0.854-0.64-0.244-0.196-0.478-0.406-0.712-0.612-0.25-0.22-0.5-0.438-0.74-0.672-0.262-0.256-0.506-0.524-0.754-0.794-0.156-0.17-0.322-0.322-0.472-0.498-0.040-0.048-0.072-0.098-0.112-0.146-0.254-0.302-0.49-0.622-0.726-0.938-0.16-0.214-0.33-0.424-0.482-0.644-0.212-0.31-0.4-0.634-0.594-0.956-0.146-0.242-0.306-0.48-0.442-0.726-0.162-0.296-0.302-0.608-0.45-0.914-0.136-0.282-0.286-0.562-0.408-0.848-0.12-0.282-0.216-0.578-0.324-0.866-0.12-0.322-0.25-0.64-0.354-0.966-0.084-0.27-0.146-0.55-0.218-0.824-0.096-0.356-0.2-0.712-0.276-1.072-0.054-0.256-0.084-0.518-0.128-0.778-0.066-0.392-0.136-0.78-0.18-1.174-0.026-0.25-0.032-0.504-0.050-0.756-0.028-0.41-0.058-0.82-0.062-1.23 0-0.060-0.008-0.118-0.008-0.178v-240c0-11.044 8.954-20 20-20h280c0.706 0 1.404 0.040 2.092 0.11 0.042 0.004 0.082 0.014 0.124 0.020 0.652 0.072 1.296 0.172 1.928 0.306 0.126 0.026 0.25 0.068 0.376 0.098 0.542 0.126 1.080 0.264 1.604 0.432 0.202 0.064 0.398 0.148 0.598 0.22 0.436 0.156 0.872 0.316 1.294 0.5 0.254 0.11 0.498 0.238 0.748 0.36 0.358 0.174 0.714 0.352 1.058 0.546 0.27 0.152 0.532 0.318 0.796 0.484 0.316 0.198 0.626 0.402 0.928 0.616 0.258 0.184 0.512 0.374 0.762 0.57 0.304 0.238 0.6 0.486 0.89 0.742 0.224 0.198 0.446 0.394 0.662 0.602 0.326 0.314 0.634 0.644 0.938 0.98 0.124 0.138 0.262 0.258 0.384 0.4 0.040 0.048 0.072 0.098 0.112 0.146 0.254 0.302 0.49 0.622 0.726 0.938 0.16 0.214 0.33 0.424 0.482 0.644 0.212 0.31 0.4 0.634 0.594 0.956 0.146 0.242 0.306 0.48 0.442 0.726 0.162 0.296 0.302 0.608 0.45 0.914 0.136 0.282 0.286 0.562 0.408 0.848 0.12 0.282 0.216 0.578 0.324 0.866 0.12 0.322 0.25 0.64 0.354 0.966 0.084 0.27 0.146 0.55 0.218 0.824 0.096 0.356 0.2 0.712 0.276 1.072 0.054 0.256 0.084 0.518 0.128 0.778 0.066 0.392 0.136 0.78 0.18 1.174 0.026 0.25 0.032 0.504 0.050 0.756 0.028 0.41 0.058 0.82 0.062 1.23 0 0.060 0.008 0.118 0.008 0.178v239.996c0.006 11.044-8.948 20-19.994 20zM172 102v176.516l205.934-176.516h-205.934zM412 125.484l-205.934 176.516h205.934v-176.516zM872 342h-240c-11.046 0-20-8.956-20-20s8.954-20 20-20h240c11.046 0 20 8.956 20 20s-8.954 20-20 20zM872 222h-240c-11.046 0-20-8.956-20-20s8.954-20 20-20h240c11.046 0 20 8.956 20 20s-8.954 20-20 20zM872 102h-240c-11.046 0-20-8.956-20-20s8.954-20 20-20h240c11.046 0 20 8.956 20 20s-8.954 20-20 20z" />
<glyph unicode="&#xe908;" glyph-name="website" d="M805.952 416.087c-7.798 7.818-20.476 7.818-28.274 0-7.818-7.798-7.818-20.476 0-28.274 7.798-7.818 20.476-7.818 28.274 0 7.818 7.798 7.818 20.476 0 28.274zM391.909 661.889c-11.038 0-19.996-8.958-19.996-19.996s8.958-19.996 19.996-19.996c11.038 0 19.996 8.958 19.996 19.996-0.002 11.038-8.96 19.996-19.996 19.996zM265.939 661.889c-11.038 0-19.996-8.958-19.996-19.996s8.958-19.996 19.996-19.996c11.038 0 19.996 8.958 19.996 19.996-0.002 11.038-8.96 19.996-19.996 19.996zM145.966 661.889c-11.038 0-19.996-8.958-19.996-19.996s8.958-19.996 19.996-19.996c11.038 0 19.996 8.958 19.996 19.996-0.002 11.038-8.96 19.996-19.996 19.996zM963.774 741.87h-36.252c31.604 40.404 56.57 77.11 73.002 107.496 16.784 31.028 36.304 75.072 12.18 99.196-23.128 23.128-68.852 11.186-143.89-37.574-61.316-39.842-134.284-99.736-206.114-169.12h-602.713c-33.076 0.002-59.986-26.908-59.986-59.984v-685.839c0-33.076 26.91-59.986 59.986-59.986h903.788c33.076 0 59.986 26.91 59.986 59.986v685.839c0 33.076-26.91 59.986-59.986 59.986zM666.667 689.699c5.964 5.964 12.050 11.972 18.090 17.852 67.792 66.032 137.57 124.172 196.474 163.712 64.424 43.242 94.566 49.786 102.78 48.65 1.66-12.208-14.798-65.53-111.23-182.318-2.216-1.74-4.052-3.928-5.372-6.442-34.726-41.594-73.678-84.058-115.906-126.286-9.722-9.722-19.518-19.32-29.12-28.53-16.51-15.848-33.104-31.214-49.534-45.886-10.784 16.038-23.11 31.082-36.894 44.88-13.37 13.37-27.946 25.38-43.476 35.946 23.288 26.088 48.152 52.39 74.188 78.422zM470.271 451.809c17.146 28.51 40.872 61.792 69.63 97.576 8.278 10.298 17.028 20.86 26.092 31.518 14.966-9.778 28.944-21.11 41.674-33.844 13.15-13.162 24.788-27.622 34.77-43.106-47.662-40.5-92.422-73.614-129.268-95.724-4.75 9.43-10.998 18.108-18.604 25.712-7.204 7.208-15.402 13.206-24.294 17.868zM466.289 320.833c-15.44-15.442-77.814-33.684-129.97-45.136 11.454 52.154 29.694 114.526 45.136 129.97 11.406 11.404 26.574 17.576 42.298 17.576 4.39 0 8.828-0.482 13.234-1.464 11.088-2.458 21.218-8.030 29.3-16.114 8.402-8.402 14.062-18.952 16.368-30.502 0.002-0.016 0.006-0.032 0.008-0.044 3.988-19.752-2.134-40.046-16.374-54.286zM39.99 681.883c0 11.026 8.97 19.996 19.996 19.996h562.501c-26.662-27.258-52.038-54.71-75.598-81.834-0.038-0.042-0.076-0.086-0.114-0.13-11.12-12.81-21.824-25.55-31.976-38.006h-474.809v99.974zM983.77-3.956c0-11.026-8.97-19.996-19.996-19.996h-903.788c-11.026 0-19.996 8.97-19.996 19.996v545.873h443.457c-21.55-28.7-39.5-55.428-52.99-78.946-28.572 1.942-56.624-8.372-77.282-29.028-33.922-33.924-57.678-156.078-62.098-180.22-1.182-6.46 0.884-13.092 5.53-17.738 3.786-3.784 8.884-5.856 14.138-5.856 1.196 0 2.4 0.108 3.6 0.326 24.142 4.418 146.3 28.176 180.22 62.098 20.14 20.14 30.49 47.536 29.124 75.482 43.936 25.062 99.29 65.962 157.608 116.57 0.036 0.032 0.074 0.062 0.11 0.094 20.722 17.99 41.828 37.22 62.83 57.216h239.532v-545.871zM983.77 581.907h-198.724c39.816 40.090 76.752 80.376 109.998 119.972h68.732c11.026 0 19.996-8.97 19.996-19.996v-99.976zM791.814 342.433c-11.302 0-20.466-9.164-20.466-20.466v-199.952c0-10.766-8.76-19.526-19.526-19.526-5.208 0-10.112 2.034-13.8 5.722-3.69 3.69-5.722 8.592-5.722 13.8v39.99c0 33.336-27.12 60.456-60.456 60.456-16.142 0-31.322-6.29-42.744-17.712-11.424-11.422-17.712-26.602-17.712-42.744 0-5.208-2.034-10.112-5.722-13.8-3.69-3.69-8.592-5.722-13.8-5.722s-10.112 2.034-13.8 5.722c-3.69 3.69-5.722 8.592-5.722 13.8 0 16.142-6.29 31.322-17.712 42.744-11.422 11.424-26.602 17.712-42.744 17.712s-31.322-6.29-42.744-17.712c-11.424-11.422-17.712-26.602-17.712-42.744 0-5.208-2.034-10.112-5.722-13.8-3.644-3.644-8.466-5.67-13.6-5.72-0.602 0.196-4.912 1.884-11.898 11.532-5.818 8.038-9.598 16.318-9.618 16.36-4.624 10.314-16.734 14.928-27.044 10.31-10.316-4.622-14.932-16.73-10.31-27.044 0.546-1.22 5.58-12.254 13.818-23.63 13.67-18.882 28.762-28.458 44.85-28.458 16.142 0 31.322 6.29 42.744 17.712 11.424 11.422 17.712 26.602 17.712 42.744 0 5.208 2.034 10.112 5.722 13.8 3.69 3.69 8.592 5.722 13.8 5.722s10.112-2.034 13.8-5.722c3.69-3.69 5.722-8.592 5.722-13.8 0-16.142 6.29-31.322 17.712-42.744 11.422-11.424 26.602-17.712 42.744-17.712s31.322 6.29 42.744 17.712c11.424 11.422 17.712 26.602 17.712 42.744 0 5.208 2.034 10.112 5.722 13.8 3.69 3.69 8.592 5.722 13.8 5.722 10.766 0 19.526-8.76 19.526-19.526v-39.99c0-16.142 6.29-31.322 17.712-42.744 11.422-11.424 26.602-17.712 42.744-17.712 33.336 0 60.456 27.12 60.456 60.456v199.952c0 11.306-9.164 20.468-20.466 20.468z" />
<glyph unicode="&#xe909;" glyph-name="photo-camera" d="M924 528c-11.040 0-20-8.96-20-20s8.96-20 20-20c11.040 0 20 8.96 20 20s-8.96 20-20 20zM100 528c-11.040 0-20-8.96-20-20s8.96-20 20-20 20 8.96 20 20-8.96 20-20 20zM964 848h-501.42c-16.262 0-32.050-6.734-43.32-18.482l-91.354-95.334c-3.782-3.93-9.054-6.184-14.466-6.184h-21.44v60c0 11.046-8.954 20-20 20h-172c-11.046 0-20-8.954-20-20v-60c-44.112 0-80-35.888-80-80v-520c0-44.112 35.888-80 80-80h864c44.112 0 80 35.888 80 80v660c0 33.084-26.916 60-60 60zM120 768h132v-40h-132v40zM40 568h284.45c-46.008-47.986-72.45-112.326-72.45-180s26.442-132.016 72.45-180h-284.45v360zM386.526 568.724c36.914 25.694 80.302 39.276 125.474 39.276s88.56-13.582 125.474-39.276c0.002 0 0.002-0.002 0.004-0.002 59.186-41.18 94.522-108.738 94.522-180.722s-35.336-139.542-94.526-180.724c-36.914-25.694-80.302-39.276-125.474-39.276s-88.56 13.582-125.478 39.278c-59.188 41.18-94.522 108.74-94.522 180.722s35.334 139.542 94.526 180.724zM984 128c0-22.056-17.944-40-40-40h-864c-22.056 0-40 17.944-40 40v40h333.12c0.1 0 0.194 0.014 0.294 0.014 41.462-26.198 89.12-40.014 138.586-40.014 49.468 0 97.126 13.816 138.586 40.014 0.1-0.002 0.196-0.014 0.296-0.014h333.118v-40zM984 208h-284.45c46.008 47.986 72.45 112.328 72.45 180 0 67.674-26.442 132.016-72.45 180h284.45v-360zM984 608h-333.12c-0.1 0-0.196-0.014-0.294-0.014-41.462 26.198-89.12 40.014-138.586 40.014s-97.126-13.816-138.586-40.014c-0.098 0.002-0.194 0.014-0.294 0.014h-333.12v40c0 22.056 17.944 40 40 40h233.44c16.232 0 32.012 6.726 43.32 18.482l91.372 95.352c3.758 3.918 9.024 6.166 14.448 6.166h501.42c11.028 0 20-8.972 20-20v-180zM924 768h-172c-11.044 0-20-8.954-20-20v-80c0-11.046 8.956-20 20-20h172c11.044 0 20 8.954 20 20v80c0 11.046-8.956 20-20 20zM904 688h-132v40h132v-40zM924 448c-11.044 0-20-8.954-20-20v-160c0-11.046 8.956-20 20-20s20 8.954 20 20v160c0 11.046-8.956 20-20 20zM100 448c-11.046 0-20-8.954-20-20v-160c0-11.046 8.954-20 20-20s20 8.954 20 20v160c0 11.046-8.954 20-20 20zM512 528c-77.196 0-140-62.804-140-140s62.804-140 140-140c77.196 0 140 62.804 140 140s-62.804 140-140 140zM512 288c-55.14 0-100 44.86-100 100s44.86 100 100 100 100-44.86 100-100-44.86-100-100-100z" />
<glyph unicode="&#xe90a;" glyph-name="volume" d="M143.026 607.237h-143.026v-318.474h143.026l270.252-200.427c0 0 49.566-41.567 49.566 1.344 0 43.010 0 683.759 0 722.868 0 33.7-43.6 0.787-43.6 0.787l-276.218-206.098zM616.819 669.391c-14.293 14.227-37.273 14.227-51.402 0-14.293-14.227-14.293-37.306 0-51.402 46.747-46.911 69.923-107.72 69.989-169.055-0.066-61.466-23.242-122.669-69.989-169.35-14.293-14.227-14.293-37.24 0-51.566 7.048-7.146 16.325-10.621 25.734-10.621 9.212 0 18.554 3.475 25.668 10.621 60.81 60.941 91.362 141.158 91.297 220.915 0.098 79.823-30.454 159.614-91.297 220.457zM715.426 783.963c-14.358 14.293-37.338 14.293-51.533 0-14.096-14.26-14.096-37.273 0-51.533 78.61-78.545 117.752-180.955 117.883-283.791-0.131-103.393-39.108-206.262-117.883-285.266-14.162-14.227-14.096-37.142 0-51.467 7.179-6.95 16.456-10.556 25.799-10.556 9.277 0 18.62 3.606 25.734 10.556 92.838 93.1 139.060 215.113 139.060 336.733 0 121.226-46.583 242.748-139.060 335.323zM836.194 901.321c-14.162 14.293-37.207 14.293-51.467 0-14.096-14.227-14.096-37.306 0-51.402 111.031-111.031 166.465-255.992 166.465-401.411 0-145.846-55.27-291.232-166.465-402.493-14.227-14.194-14.096-37.338 0-51.467 7.179-7.048 16.522-10.556 25.865-10.556 9.212 0 18.489 3.508 25.602 10.556 125.291 125.39 187.839 289.954 187.806 453.993 0.033 163.744-62.842 327.816-187.806 452.78z" />
<glyph unicode="&#xe90b;" glyph-name="chevron-right" d="M782.857 397.307l-440.304-440.29c-28.009-28.022-73.42-28.022-101.415 0-27.997 27.997-27.997 73.406 0 101.401l389.601 389.589-389.589 389.576c-27.997 28.009-27.997 73.413 0 101.41 27.997 28.009 73.406 28.009 101.415 0l440.304-440.297c13.999-14.005 20.99-32.342 20.99-50.687 0-18.354-7.005-36.704-21.001-50.703z" />
<glyph unicode="&#xe90c;" glyph-name="resources" d="M524 760.002c-11.040 0-20-8.96-20-20s8.96-20 20-20 20 8.96 20 20c0 11.040-8.96 20-20 20zM1008.848 539.404l-74.62 18.652c-10.196 43.516-27.206 84.744-50.698 122.876l39.458 65.758c4.722 7.87 3.482 17.944-3.006 24.434l-84.86 84.86c-6.492 6.49-16.562 7.732-24.434 3.008l-65.758-39.458c-38.132 23.492-79.362 40.502-122.878 50.698l-18.65 74.622c-2.224 8.9-10.224 15.146-19.402 15.146h-120c-9.176 0-17.176-6.246-19.402-15.148l-18.876-75.482c-43.168-10.438-83.858-27.438-121.278-50.67l-67.132 40.29c-7.874 4.726-17.946 3.484-24.434-3.006l-84.86-84.86c-6.49-6.49-7.73-16.564-3.006-24.436l40.942-68.214c-22.67-37.328-39.15-77.474-49.12-119.652l-77.684-19.418c-8.904-2.224-15.15-10.224-15.15-19.402v-120c0-9.178 6.246-17.176 15.148-19.402l78.55-19.64c10.144-41.59 26.43-80.93 48.524-117.31l-108.642-108.644c-0.004-0.004-0.006-0.006-0.010-0.010l-28.262-28.28c-18.896-18.876-29.306-43.99-29.306-70.712s10.408-51.836 29.294-70.698c18.886-18.898 43.998-29.306 70.706-29.306s51.82 10.408 70.698 29.298l136.952 136.934c36.41-22.102 75.748-38.386 117.306-48.526l19.642-78.55c2.226-8.902 10.226-15.148 19.402-15.148h120c9.178 0 17.178 6.246 19.404 15.15l19.416 77.688c42.194 9.982 82.336 26.456 119.652 49.102l68.22-40.93c7.87-4.72 17.94-3.48 24.432 3.008l84.86 84.86c6.49 6.49 7.728 16.562 3.008 24.432l-40.292 67.152c23.23 37.4 40.232 78.090 50.67 121.262l75.482 18.876c8.904 2.226 15.148 10.224 15.148 19.402v120c-0.006 9.17-6.252 17.17-15.154 19.394zM142.416-6.416c-11.332-11.34-26.394-17.584-42.414-17.584s-31.082 6.244-42.426 17.596c-11.334 11.318-17.574 26.38-17.574 42.41s6.242 31.092 17.588 42.424l14.136 14.146 84.848-84.844-14.158-14.148zM290.756 141.898c-0.030-0.030-0.060-0.060-0.090-0.090l-105.806-105.8-84.856 84.856 105.814 105.812c0.028 0.028 0.056 0.054 0.082 0.082l86.092 86.092c0.034 0.034 0.070 0.068 0.104 0.104l69.484 69.482c17.732-37.090 47.78-67.136 84.852-84.86l-69.48-69.48c-0.034-0.032-0.064-0.066-0.098-0.098l-86.098-86.1zM572.974 483.678c2.396 7.188 0.526 15.11-4.832 20.466s-13.278 7.222-20.466 4.832l-163.556-54.512c-0.072 1.842-0.12 3.688-0.12 5.538 0 77.196 62.804 140 140 140s140-62.804 140-140-62.804-140-140-140c-1.85 0-3.696 0.048-5.538 0.12l54.512 163.556zM479.96 331.106l-2.976-2.976c-39.5 14.062-70.794 45.356-84.856 84.856l2.976 2.976 127.276 42.42-42.42-127.276zM984 415.62v0l-72.274-18.072c-7.426-1.858-13.14-7.79-14.718-15.278-9.9-46.978-28.24-90.844-54.508-130.376-4.27-6.428-4.462-14.74-0.492-21.358l38.646-64.412-62.776-62.776-65.35 39.208c-6.546 3.926-14.756 3.788-21.166-0.368-39.664-25.704-83.048-43.498-128.952-52.89-7.542-1.542-13.528-7.278-15.394-14.744l-18.634-74.55h-88.768l-18.834 75.312c-1.852 7.412-7.766 13.12-15.238 14.71-38.446 8.184-74.896 22.094-108.682 41.416l57.892 57.892c40.158-19.206 84.52-29.33 129.246-29.33 165.42 0 299.998 134.58 299.998 299.998 0 62.15-18.916 121.818-54.708 172.554-34.974 49.582-83.332 87.040-139.844 108.322-10.338 3.898-21.874-1.33-25.766-11.668s1.332-21.874 11.668-25.766c100.874-37.99 168.646-135.822 168.646-243.442 0-143.366-116.636-259.998-259.998-259.998-33.984 0-67.716 6.748-98.96 19.616l63.826 63.826c11.496-2.286 23.268-3.442 35.132-3.442 99.252 0 180 80.748 180 179.998s-80.744 179.998-179.996 179.998c-99.252 0-179.998-80.748-179.998-179.998 0-11.868 1.156-23.64 3.442-35.132l-63.826-63.826c-12.868 31.242-19.616 64.976-19.616 98.96 0 107.622 67.774 205.452 168.646 243.442 10.336 3.892 15.56 15.428 11.668 25.766-3.892 10.336-15.426 15.564-25.766 11.668-56.512-21.284-104.87-58.74-139.844-108.322-35.79-50.736-54.708-110.404-54.708-172.554 0-44.726 10.124-89.088 29.328-129.246l-57.894-57.894c-19.312 33.756-33.222 70.208-41.412 108.686-1.59 7.472-7.298 13.384-14.71 15.238l-75.312 18.832v88.768l74.55 18.634c7.47 1.868 13.206 7.856 14.746 15.4 9.372 45.876 27.17 89.26 52.904 128.94 4.156 6.41 4.298 14.626 0.368 21.176l-39.216 65.344 62.772 62.774 64.39-38.642c6.618-3.972 14.928-3.782 21.356 0.488 39.558 26.272 83.432 44.612 130.4 54.51 7.49 1.578 13.42 7.292 15.278 14.718l18.074 72.27h88.77l17.874-71.51c1.87-7.48 7.874-13.22 15.432-14.752 47.206-9.562 91.594-27.876 131.936-54.426 6.418-4.222 14.692-4.396 21.286-0.444l62.97 37.788 62.774-62.776-37.786-62.97c-3.956-6.592-3.782-14.866 0.444-21.288 26.55-40.34 44.862-84.728 54.424-131.934 1.53-7.558 7.27-13.562 14.752-15.432l71.508-17.874v-88.762z" />
<glyph unicode="&#xe90d;" glyph-name="email" d="M711.999 102.002c-11.040 0-20-8.96-20-20s8.96-20 20-20c11.040 0 20 8.96 20 20s-8.96 20-20 20zM1010.304 606.145c-11.424 13.89-28.302 21.856-46.306 21.856h-106v271.999c0 33.084-26.916 60-60 60h-571.999c-33.084 0-60-26.916-60-60v-271.999h-106c-18.004 0-34.882-7.966-46.298-21.846-8.836-10.728-13.702-24.28-13.702-38.154v-571.999c0-16.020 6.242-31.084 17.578-42.422 0.038-0.038 0.078-0.072 0.116-0.11 0.050-0.050 0.104-0.098 0.154-0.146 11.304-11.17 26.256-17.322 42.152-17.322h903.998c15.81 0 30.682 6.088 41.966 17.144 0.072 0.068 0.144 0.136 0.216 0.206 0.080 0.078 0.164 0.152 0.242 0.23 11.334 11.336 17.578 26.4 17.578 42.42v571.999c-0.002 13.874-4.868 27.426-13.696 38.144zM857.998 588.001h97.358l-97.358-78.184v78.184zM206 900c0 11.028 8.972 20 20 20h571.999c11.028 0 20-8.972 20-20v-422.305l-206.954-166.194-86.242 71.866c-7.418 6.18-18.19 6.18-25.608 0l-86.242-71.866-206.954 166.192v422.307zM166 588.001v-78.184l-97.358 78.184h97.358zM40 0.66v559.041l341.605-274.327-341.605-284.713zM72.892-23.998l439.107 365.965 439.107-365.965h-878.214zM983.998 0.66l-341.603 284.715 341.603 274.325v-559.041zM626.141 708.144c-7.81 7.808-20.474 7.808-28.286 0l-105.856-105.858-65.858 65.858c-7.81 7.808-20.474 7.808-28.286 0-7.81-7.81-7.81-20.474 0-28.286l80.002-80c3.906-3.904 9.024-5.858 14.142-5.858s10.238 1.954 14.142 5.858l120 120c7.81 7.808 7.81 20.474 0 28.286zM631.999 102.002h-319.999c-11.046 0-20-8.956-20-20s8.954-20 20-20h319.999c11.046 0 20 8.956 20 20s-8.954 20-20 20zM511.999 874c-121.308 0-220-98.692-220-220s98.692-220 220-220 220 98.692 220 220-98.692 220-220 220zM511.999 474.001c-99.252 0-180 80.748-180 180s80.748 180 180 180c99.252 0 180-80.748 180-180s-80.748-180-180-180z" />
<glyph unicode="&#xe90e;" glyph-name="monitor" d="M432 747.998c-11.040 0-20-8.96-20-20s8.96-20 20-20 20 8.96 20 20-8.96 20-20 20zM964 959.998h-904c-33.084 0-60-26.916-60-60v-698c0-33.084 26.916-60 60-60h310.3c-7.252-42.684-37.366-78.606-79.484-92.646l-25.14-8.38c-8.168-2.72-13.676-10.364-13.676-18.972v-66c0-11.044 8.956-20 20-20h480c11.044 0 20 8.956 20 20v66c0 8.61-5.508 16.252-13.676 18.972l-25.14 8.382c-42.118 14.038-72.232 49.96-79.484 92.644h310.3c33.084 0 60 26.916 60 60v698c0 33.084-26.916 60-60 60zM720.536 11.408l11.464-3.822v-31.586h-440v31.586l11.464 3.82c58.512 19.504 99.718 70.592 107.284 130.594h202.504c7.564-60.002 48.772-111.092 107.284-130.592zM984 201.998c0-11.028-8.972-20-20-20h-904c-11.028 0-20 8.972-20 20v106h944v-106zM371.84 599.878l229.478-229.48c3.906-3.904 9.024-5.858 14.142-5.858s10.236 1.954 14.142 5.858c7.81 7.81 7.81 20.474 0 28.286l-69.316 69.316 91.876 91.876 216.764-211.876h-742.926v11.582l245.84 240.296zM126 415.514v418.484h772v-458.484l-232.020 226.786c-7.832 7.656-20.374 7.588-28.124-0.16l-105.856-105.856-145.858 145.858c-7.75 7.746-20.288 7.818-28.124 0.16l-232.018-226.788zM984 347.998h-46v506c0 11.044-8.956 20-20 20h-812c-11.044 0-20-8.956-20-20v-506h-46v552c0 11.028 8.972 20 20 20h904c11.028 0 20-8.972 20-20v-552zM552 747.998c-33.084 0-60-26.916-60-60s26.916-60 60-60 60 26.916 60 60-26.916 60-60 60zM552 667.998c-11.028 0-20 8.972-20 20s8.972 20 20 20c11.028 0 20-8.972 20-20 0-11.026-8.972-20-20-20zM352 747.998h-80c-11.044 0-20-8.956-20-20s8.956-20 20-20h80c11.044 0 20 8.956 20 20 0 11.046-8.956 20-20 20zM752 707.998h-80c-11.044 0-20-8.956-20-20s8.956-20 20-20h80c11.044 0 20 8.956 20 20 0 11.046-8.956 20-20 20zM552 261.998h-80c-11.044 0-20-8.956-20-20s8.956-20 20-20h80c11.044 0 20 8.956 20 20 0 11.046-8.956 20-20 20z" />
<glyph unicode="&#xe90f;" glyph-name="view" d="M865.56 122.74c-7.82 7.8-20.48 7.8-28.3 0-7.8-7.82-7.8-20.48 0-28.3 7.82-7.8 20.48-7.8 28.3 0 7.8 7.82 7.8 20.48 0 28.3zM186.74 801.56c-7.82 7.8-20.48 7.8-28.3 0-7.8-7.82-7.8-20.48 0-28.3 7.82-7.8 20.48-7.8 28.3 0 7.8 7.82 7.8 20.48 0 28.3zM848.258 459.646c-1.518 2.12-37.88 52.522-96.91 103.492-79.45 68.602-162.216 104.862-239.348 104.862s-159.898-36.26-239.348-104.862c-59.030-50.97-95.392-101.372-96.91-103.492-4.988-6.962-4.988-16.33 0-23.292 1.518-2.12 37.88-52.522 96.91-103.492 79.45-68.602 162.216-104.862 239.348-104.862s159.898 36.26 239.348 104.862c59.030 50.97 95.392 101.372 96.91 103.492 4.99 6.962 4.99 16.33 0 23.292zM512 268c-140.29 0-261.548 138.462-294.768 180.012 33.176 41.576 154.212 179.988 294.768 179.988 140.29 0 261.544-138.456 294.768-180.012-33.176-41.576-154.212-179.988-294.768-179.988zM512 588c-77.196 0-140-62.804-140-140s62.804-140 140-140c77.196 0 140 62.804 140 140s-62.804 140-140 140zM512 348c-55.14 0-100 44.86-100 100s44.86 100 100 100 100-44.86 100-100-44.86-100-100-100zM512 508c-33.084 0-60-26.916-60-60s26.916-60 60-60 60 26.916 60 60-26.916 60-60 60zM512 428c-11.028 0-20 8.972-20 20s8.972 20 20 20c11.028 0 20-8.972 20-20s-8.972-20-20-20zM512 828c-11.046 0-20-8.954-20-20v-80c0-11.046 8.954-20 20-20s20 8.954 20 20v80c0 11.046-8.954 20-20 20zM512 188c-11.046 0-20-8.954-20-20v-80c0-11.046 8.954-20 20-20s20 8.954 20 20v80c0 11.046-8.954 20-20 20zM328.162 660.124l-56.58 56.58c-7.81 7.81-20.474 7.81-28.286 0-7.81-7.81-7.81-20.474 0-28.286l56.58-56.58c3.906-3.906 9.026-5.858 14.144-5.858s10.238 1.952 14.142 5.858c7.81 7.81 7.81 20.474 0 28.286zM780.702 207.582l-56.578 56.58c-7.81 7.81-20.474 7.81-28.286 0-7.81-7.81-7.81-20.474 0-28.286l56.58-56.58c3.906-3.906 9.024-5.858 14.142-5.858s10.238 1.952 14.142 5.858c7.81 7.81 7.81 20.474 0 28.286zM328.164 264.164c-7.81 7.81-20.474 7.81-28.286 0l-56.58-56.58c-7.81-7.81-7.81-20.474 0-28.286 3.906-3.906 9.024-5.858 14.142-5.858s10.238 1.952 14.144 5.858l56.58 56.58c7.81 7.81 7.81 20.474 0 28.286zM780.704 716.704c-7.81 7.81-20.474 7.81-28.286 0l-56.58-56.58c-7.81-7.81-7.81-20.474 0-28.286 3.906-3.906 9.024-5.858 14.142-5.858s10.238 1.952 14.144 5.858l56.58 56.58c7.81 7.81 7.81 20.474 0 28.286zM877.554 813.554c-94.436 94.438-219.998 146.446-353.554 146.446-97.254 0-191.546-27.948-272.68-80.824-9.254-6.032-11.868-18.422-5.836-27.676s18.424-11.866 27.676-5.836c74.62 48.63 161.36 74.336 250.84 74.336 253.644 0 460-206.356 460-460 0-38.916-4.876-77.614-14.49-115.022-2.75-10.698 3.694-21.598 14.39-24.348 1.67-0.43 3.346-0.634 4.994-0.634 8.91 0 17.036 5.998 19.356 15.026 10.452 40.656 15.75 82.706 15.75 124.978 0 133.556-52.008 259.118-146.446 353.554zM956.824 266.176c-10.042 4.604-21.914 0.204-26.52-9.834-9.376-20.426-20.358-40.338-32.64-59.184-6.030-9.254-3.418-21.644 5.836-27.676 3.37-2.196 7.158-3.246 10.902-3.246 6.536 0 12.94 3.2 16.774 9.082 13.35 20.484 25.288 42.13 35.482 64.336 4.606 10.042 0.204 21.914-9.834 26.522zM778.516 44.5c-6.032 9.254-18.424 11.866-27.676 5.836-74.62-48.63-161.36-74.336-250.84-74.336-253.644 0-460 206.356-460 460 0 38.916 4.876 77.614 14.49 115.022 2.75 10.698-3.694 21.598-14.39 24.348-10.7 2.748-21.6-3.694-24.35-14.392-10.452-40.656-15.75-82.706-15.75-124.978 0-133.556 52.008-259.118 146.446-353.554s219.998-146.446 353.554-146.446c97.254 0 191.546 27.948 272.68 80.824 9.254 6.032 11.868 18.422 5.836 27.676zM120.502 726.518c-9.254 6.030-21.646 3.418-27.676-5.836-13.35-20.484-25.288-42.13-35.482-64.336-4.608-10.042-0.206-21.914 9.832-26.522 2.704-1.24 5.54-1.828 8.332-1.828 7.576 0 14.822 4.326 18.19 11.662 9.376 20.426 20.358 40.338 32.64 59.184 6.030 9.254 3.418 21.644-5.836 27.676z" />
<glyph unicode="&#xe910;" glyph-name="image" d="M672 262c-11.040 0-20-8.96-20-20s8.96-20 20-20c11.040 0 20 8.96 20 20s-8.96 20-20 20zM100 960h-80c-11.044 0-20-8.954-20-20v-80c0-11.046 8.956-20 20-20h80c11.044 0 20 8.954 20 20v80c0 11.046-8.956 20-20 20zM80 880h-40v40h40v-40zM100 56h-80c-11.044 0-20-8.954-20-20v-80c0-11.046 8.956-20 20-20h80c11.044 0 20 8.954 20 20v80c0 11.046-8.956 20-20 20zM80-24h-40v40h40v-40zM1004 960h-80c-11.044 0-20-8.954-20-20v-80c0-11.046 8.956-20 20-20h80c11.044 0 20 8.954 20 20v80c0 11.046-8.956 20-20 20zM984 880h-40v40h40v-40zM1004 56h-80c-11.044 0-20-8.954-20-20v-80c0-11.046 8.956-20 20-20h80c11.044 0 20 8.954 20 20v80c0 11.046-8.956 20-20 20zM984-24h-40v40h40v-40zM60 794c-11.044 0-20-8.954-20-20v-40c0-11.046 8.956-20 20-20s20 8.954 20 20v40c0 11.046-8.956 20-20 20zM60 668c-11.044 0-20-8.954-20-20v-40c0-11.046 8.956-20 20-20s20 8.954 20 20v40c0 11.046-8.956 20-20 20zM60 548c-11.044 0-20-8.954-20-20v-40c0-11.046 8.956-20 20-20s20 8.954 20 20v40c0 11.046-8.956 20-20 20zM60 428c-11.044 0-20-8.954-20-20v-40c0-11.046 8.956-20 20-20s20 8.954 20 20v40c0 11.046-8.956 20-20 20zM60 302c-11.044 0-20-8.954-20-20v-40c0-11.046 8.956-20 20-20s20 8.954 20 20v40c0 11.046-8.956 20-20 20zM60 176c-11.044 0-20-8.954-20-20v-40c0-11.046 8.956-20 20-20s20 8.954 20 20v40c0 11.046-8.956 20-20 20zM964 794c-11.044 0-20-8.954-20-20v-40c0-11.046 8.956-20 20-20s20 8.954 20 20v40c0 11.046-8.956 20-20 20zM964 668c-11.044 0-20-8.954-20-20v-40c0-11.046 8.956-20 20-20s20 8.954 20 20v40c0 11.046-8.956 20-20 20zM964 548c-11.044 0-20-8.954-20-20v-40c0-11.046 8.956-20 20-20s20 8.954 20 20v40c0 11.046-8.956 20-20 20zM964 428c-11.044 0-20-8.954-20-20v-40c0-11.046 8.956-20 20-20s20 8.954 20 20v40c0 11.046-8.956 20-20 20zM964 302c-11.044 0-20-8.954-20-20v-40c0-11.046 8.956-20 20-20s20 8.954 20 20v40c0 11.046-8.956 20-20 20zM964 176c-11.044 0-20-8.954-20-20v-40c0-11.046 8.956-20 20-20s20 8.954 20 20v40c0 11.046-8.956 20-20 20zM226 16h-40c-11.044 0-20-8.954-20-20s8.956-20 20-20h40c11.044 0 20 8.954 20 20s-8.956 20-20 20zM352 16h-40c-11.044 0-20-8.954-20-20s8.956-20 20-20h40c11.044 0 20 8.954 20 20s-8.956 20-20 20zM472 16h-40c-11.044 0-20-8.954-20-20s8.956-20 20-20h40c11.044 0 20 8.954 20 20s-8.956 20-20 20zM592 16h-40c-11.044 0-20-8.954-20-20s8.956-20 20-20h40c11.044 0 20 8.954 20 20s-8.956 20-20 20zM712 16h-40c-11.044 0-20-8.954-20-20s8.956-20 20-20h40c11.044 0 20 8.954 20 20s-8.956 20-20 20zM838 16h-40c-11.044 0-20-8.954-20-20s8.956-20 20-20h40c11.044 0 20 8.954 20 20s-8.956 20-20 20zM226 920h-40c-11.044 0-20-8.954-20-20s8.956-20 20-20h40c11.044 0 20 8.954 20 20s-8.956 20-20 20zM352 920h-40c-11.044 0-20-8.954-20-20s8.956-20 20-20h40c11.044 0 20 8.954 20 20s-8.956 20-20 20zM472 920h-40c-11.044 0-20-8.954-20-20s8.956-20 20-20h40c11.044 0 20 8.954 20 20s-8.956 20-20 20zM592 920h-40c-11.044 0-20-8.954-20-20s8.956-20 20-20h40c11.044 0 20 8.954 20 20s-8.956 20-20 20zM712 920h-40c-11.044 0-20-8.954-20-20s8.956-20 20-20h40c11.044 0 20 8.954 20 20s-8.956 20-20 20zM838 920h-40c-11.044 0-20-8.954-20-20s8.956-20 20-20h40c11.044 0 20 8.954 20 20s-8.956 20-20 20zM838 794h-652c-11.044 0-20-8.954-20-20v-658c0-11.046 8.956-20 20-20h652c11.044 0 20 8.954 20 20v205.99c0 0.006 0 0.014 0 0.020v451.99c0 11.046-8.956 20-20 20zM818 262h-66c-11.044 0-20-8.954-20-20s8.956-20 20-20h66v-86h-612v86h346c11.044 0 20 8.954 20 20s-8.956 20-20 20h-346v97.524l165.77 160.422 125.898-125.898 103.258-109.246c3.934-4.162 9.23-6.262 14.54-6.262 4.93 0 9.87 1.812 13.734 5.464 8.028 7.588 8.384 20.246 0.796 28.274l-70.668 74.766 92.672 92.672 166-166v-51.716zM818 370.286l-151.858 151.858c-7.812 7.81-20.472 7.81-28.286 0l-105.856-105.86-145.858 145.858c-7.724 7.722-20.208 7.82-28.050 0.23l-152.092-147.186v338.814h612v-383.714zM552 668c-33.084 0-60-26.916-60-60s26.916-60 60-60 60 26.916 60 60-26.916 60-60 60zM552 588c-11.028 0-20 8.972-20 20s8.972 20 20 20c11.028 0 20-8.972 20-20s-8.972-20-20-20z" />
<glyph unicode="&#xe911;" glyph-name="paint-bucket" d="M424.714 616.155c-7.798 7.818-20.474 7.818-28.272 0-7.818-7.798-7.818-20.454 0-28.272 7.798-7.798 20.474-7.798 28.272 0 7.818 7.818 7.818 20.476 0 28.272zM905.796 361.29l-327.505 327.529v91.090c0 99.224-80.724 179.949-179.949 179.949s-179.949-80.724-179.949-179.949v-229.449l-159.459-159.461c-0.006-0.006-0.012-0.012-0.018-0.018s-0.010-0.012-0.018-0.020l-29.674-29.674c-38.966-38.966-38.968-102.388 0-141.383l254.483-254.463c18.88-18.894 43.99-29.3 70.696-29.3 26.704 0 51.812 10.406 70.69 29.294l29.67 29.668c0.002 0.002 0.002 0.002 0.004 0.004 0 0 0.002 0.002 0.004 0.004l332.061 332.047h104.826c8.088 0 15.378 4.872 18.472 12.342 3.092 7.47 1.38 16.070-4.336 21.788zM544.342 508.824c3.894 3.896 9.012 5.844 14.128 5.844 5.122 0 10.244-1.952 14.146-5.852 3.78-3.774 5.862-8.796 5.862-14.136 0-5.338-2.082-10.36-5.862-14.132-0.004-0.004-0.006-0.006-0.010-0.010-3.776-3.774-8.794-5.854-14.132-5.854s-10.356 2.080-14.134 5.856c-3.776 3.776-5.854 8.798-5.854 14.144 0 5.34 2.078 10.364 5.856 14.14zM398.342 919.868c77.176 0 139.961-62.786 139.961-139.961v-51.102l-56.642 56.642c-3.75 3.748-8.836 5.856-14.138 5.856s-10.388-2.108-14.138-5.856l-195.001-195.003v189.461h-0.002c0.002 77.176 62.784 139.963 139.961 139.963zM396.814-6.288c-11.328-11.334-26.388-17.578-42.41-17.578-16.024 0-31.084 6.242-42.418 17.582l-254.479 254.463c-23.384 23.398-23.386 61.454-0.004 84.836l15.552 15.552 339.301-339.317-15.542-15.538zM778.551 367.148c-5.302 0-10.386-2.106-14.136-5.856l-323.785-323.765-339.301 339.317 151.191 151.193c0.002 0.002 0.004 0.004 0.008 0.008l214.993 214.993 70.78-70.784v-121.090c-8.124-2.888-15.746-7.57-22.236-14.060-11.328-11.328-17.566-26.394-17.566-42.42 0-16.028 6.238-31.092 17.566-42.42s26.388-17.568 42.41-17.568c16.016 0 31.072 6.236 42.4 17.556 11.344 11.33 17.592 26.398 17.592 42.43s-6.248 31.1-17.584 42.422c-6.586 6.586-14.338 11.316-22.596 14.192v80.966l265.099-265.113h-64.834zM368.171 559.614c-7.804 7.806-20.466 7.81-28.274 0l-169.671-169.651c-7.81-7.808-7.81-20.466-0.002-28.276 3.902-3.904 9.022-5.856 14.138-5.856s10.234 1.952 14.136 5.856l169.671 169.651c7.808 7.808 7.808 20.466 0.002 28.276zM940.978 218.679c-3.656 5.84-10.060 9.388-16.95 9.388s-13.292-3.546-16.948-9.388c-13.864-22.152-83.022-135.055-83.022-182.557 0-55.124 44.848-99.97 99.97-99.97 55.124 0 99.97 44.846 99.97 99.97 0.004 47.502-69.156 160.409-83.020 182.557zM924.032-23.86c-33.074 0-59.982 26.908-59.982 59.982 0 22.026 31.126 83.72 59.982 133.233 28.856-49.514 59.982-111.208 59.982-133.233 0-33.074-26.908-59.982-59.982-59.982z" />
<glyph unicode="&#xe912;" glyph-name="full-size" d="M35.663 650.503c19.7 0 35.663 15.967 35.663 35.663v152.057l229.693-229.645c6.966-6.961 16.091-10.442 25.216-10.442 9.13 0 18.259 3.481 25.221 10.447 13.928 13.928 13.928 36.509-0.005 50.432l-229.702 229.65h152.090c19.695 0 35.663 15.967 35.663 35.663s-15.963 35.663-35.663 35.663h-238.176c-19.7 0-35.663-15.967-35.663-35.663v-238.166c0-19.691 15.963-35.658 35.663-35.658zM988.337 245.497c-19.7 0-35.663-15.967-35.663-35.663v-152.062l-236.763 236.763c-13.932 13.928-36.509 13.928-50.437 0s-13.928-36.509 0-50.432l236.759-236.759h-152.052c-19.7 0-35.663-15.967-35.663-35.663s15.963-35.663 35.663-35.663h238.161c19.7 0 35.663 15.967 35.663 35.663v238.152c-0.005 19.695-15.972 35.663-35.668 35.663zM308.089 294.536l-236.74-236.759v152.057c0 19.695-15.963 35.663-35.663 35.663s-35.663-15.967-35.663-35.663v-238.161c0-19.695 15.963-35.663 35.663-35.663h238.152c19.695 0 35.663 15.967 35.663 35.663s-15.963 35.663-35.663 35.663h-152.057l236.744 236.768c13.928 13.928 13.928 36.509-0.005 50.437-13.918 13.923-36.5 13.923-50.432-0.005zM988.337 959.99h-238.161c-19.7 0-35.663-15.967-35.663-35.663s15.963-35.663 35.663-35.663h152.062l-229.659-229.674c-13.928-13.928-13.928-36.509 0.005-50.437 6.961-6.961 16.091-10.442 25.216-10.442s18.255 3.485 25.221 10.447l229.659 229.674v-152.066c0-19.695 15.963-35.663 35.663-35.663s35.663 15.967 35.663 35.663v238.161c-0.005 19.7-15.972 35.663-35.668 35.663z" />
<glyph unicode="&#xe913;" glyph-name="quote" horiz-adv-x="1280" d="M541.257 466.286v-508.343h-512v336.457c0 126.782 21.943 242.59 65.829 347.429s118.247 209.676 223.086 314.514l190.171-146.286c-58.515-65.829-104.228-125.562-137.143-179.2s-54.248-108.495-64-164.571h234.057zM1247.086 466.286v-508.343h-512v336.457c0 126.782 21.943 242.59 65.829 347.429s118.247 209.676 223.086 314.514l190.171-146.286c-58.515-65.829-104.228-125.562-137.143-179.2s-54.248-108.495-64-164.571h234.057z" />
<glyph unicode="&#xe914;" glyph-name="password" d="M372.019 808.287l-36.926 73.843c-6.38 12.889-19.537 21.028-33.926 20.972h-263.241c-20.944 0-37.926-16.981-37.926-37.926v-530.963c0-20.944 16.981-37.926 37.926-37.926h739.556v37.926h-739.556v530.963h263.241l36.926-73.843c6.38-12.889 19.537-21.028 33.926-20.972h462.352v-75.852h37.926v151.704c0 20.944-16.981 37.926-37.926 37.926h-455.111v-37.926h455.111v-37.926zM417.185 410.065h75.852c10.472 0 18.963 8.491 18.963 18.963v114.176c32.648 24.491 45.963 67.12 33.065 105.833-12.907 38.722-49.139 64.833-89.954 64.833s-77.046-26.111-89.954-64.833c-12.898-38.713 0.417-81.343 33.065-105.833v-114.176c0-10.472 8.491-18.963 18.963-18.963zM455.111 675.546c31.417 0 56.889-25.472 56.889-56.889 0.009-20.241-10.852-38.935-28.444-48.944-5.852-3.38-9.472-9.62-9.481-16.38v-105.343h-37.926v105.343c-0.009 6.759-3.63 13-9.481 16.38-17.593 10.009-28.454 28.704-28.444 48.944 0 31.417 25.472 56.889 56.889 56.889zM872.296 220.435c-41.889 0-75.852-33.963-75.852-75.852s33.963-75.852 75.852-75.852 75.852 33.963 75.852 75.852-33.963 75.852-75.852 75.852zM872.296 106.657c-20.944 0-37.926 16.981-37.926 37.926s16.981 37.926 37.926 37.926 37.926-16.981 37.926-37.926c0-20.944-16.981-37.926-37.926-37.926zM929.185 285.176v352.444c0 10.472-8.491 18.963-18.963 18.963h-75.852c-10.472 0-18.963-8.491-18.963-18.963v-18.963h-18.963c-10.472 0-18.963-8.491-18.963-18.963v-56.889c0-10.472 8.491-18.963 18.963-18.963h18.963v-37.926h-37.926c-10.472 0-18.963-8.491-18.963-18.963v-75.852c0-10.472 8.491-18.963 18.963-18.963h37.926v-86.963c-67.315-27.231-105.889-98.343-92.019-169.611 13.87-71.278 76.296-122.731 148.907-122.731s135.037 51.454 148.907 122.731c13.87 71.269-24.704 142.38-92.019 169.611zM872.296 30.806c-56.444 0.056-104.324 41.481-112.481 97.343-8.148 55.852 25.88 109.25 79.963 125.435 8.037 2.389 13.556 9.778 13.556 18.167v119.352c0 10.472-8.491 18.963-18.963 18.963h-37.926v37.926h37.926c10.472 0 18.963 8.491 18.963 18.963v75.852c0 10.472-8.491 18.963-18.963 18.963h-18.963v18.963h18.963c10.472 0 18.963 8.491 18.963 18.963v18.963h37.926v-346.907c0-8.389 5.519-15.778 13.556-18.167 54.083-16.185 88.111-69.583 79.963-125.435-8.157-55.861-56.037-97.287-112.481-97.343zM0 258.361h341.333v-37.926h-341.333zM379.259 258.361h303.407v-37.926h-303.407z" />
<glyph unicode="&#xe915;" glyph-name="envelope" d="M1023.29 706.732c-0.042 28.898-23.564 52.378-52.454 52.378-0.024 0-0.048 0-0.068 0l-918.388-1.262c-14.010-0.018-27.176-5.492-37.070-15.412-9.892-9.922-15.328-23.104-15.31-37.11l0.71-516.057c0.018-14.010 5.492-27.176 15.412-37.070 9.902-9.876 23.052-15.31 37.038-15.31 0.024 0 0.050 0 0.070 0l918.386 1.262c28.916 0.040 52.414 23.598 52.38 52.522l-0.706 516.059zM913.22 706.58l-401.181-278.887-401.959 277.783 803.14 1.104zM681.691 375.059l237.942-184.53-815.942-1.12 239.392 185.65c11.444 8.878 13.528 25.35 4.652 36.798-8.878 11.444-25.35 13.528-36.798 4.652l-257.813-199.938-0.64 464.949 444.687-307.313c4.488-3.102 9.698-4.65 14.91-4.65 5.234 0 10.472 1.566 14.97 4.692l443.823 308.527 0.672-466.131-257.711 199.862c-11.438 8.874-27.918 6.792-36.794-4.652-8.878-11.444-6.796-27.92 4.652-36.796z" />
<glyph unicode="&#xe916;" glyph-name="globe" d="M512 828c-209.532 0-380-170.468-380-380s170.468-380 380-380 380 170.468 380 380-170.468 380-380 380zM345.388 744.284c-18.764-25.076-31.998-54.516-37.904-86.492-16.85 3.302-33.044 9.176-48.138 17.474 24.672 27.4 53.724 50.772 86.042 69.018zM234.092 643.654c21.642-12.862 45.25-21.568 69.926-25.87v-149.784h-131.414c3.798 65.13 26 125.396 61.488 175.654zM234.090 252.35c-35.486 50.256-57.688 110.52-61.486 175.65h131.414v-149.784c-24.674-4.3-48.286-13.006-69.928-25.866zM259.344 220.736c15.094 8.3 31.29 14.172 48.14 17.474 5.906-31.976 19.14-61.416 37.904-86.494-32.32 18.246-61.372 41.62-86.044 69.020zM492 109.324c-71.69 8.55-129.66 62.39-144.354 132.034h144.354v-132.034zM492 281.358h-147.982v146.642h147.982v-146.642zM492 468h-147.982v146.642h147.982v-146.642zM492 654.644h-144.354c14.694 69.644 72.664 123.484 144.354 132.034v-132.034zM789.91 643.652c35.486-50.258 57.688-110.522 61.486-175.652h-131.414v149.784c24.676 4.3 48.286 13.006 69.928 25.868zM764.656 675.264c-15.094-8.3-31.29-14.172-48.14-17.474-5.906 31.976-19.14 61.416-37.904 86.494 32.32-18.246 61.372-41.62 86.044-69.020zM532 786.678c71.69-8.55 129.66-62.39 144.354-132.034h-144.354v132.034zM532 614.642h147.982v-146.642h-147.982v146.642zM532 428h147.982v-146.642h-147.982v146.642zM532 109.322v132.034h144.354c-14.694-69.644-72.664-123.484-144.354-132.034zM678.612 151.716c18.764 25.076 31.998 54.516 37.904 86.492 16.85-3.302 33.044-9.176 48.138-17.474-24.672-27.4-53.724-50.772-86.042-69.018zM789.908 252.346c-21.642 12.862-45.25 21.568-69.926 25.87v149.784h131.414c-3.798-65.13-26-125.396-61.488-175.654zM811.998 57.536c-6.378 9.018-18.858 11.166-27.878 4.786-79.878-56.472-173.976-86.322-272.12-86.322-54.312 0-107.552 9.146-158.236 27.186-10.41 3.706-21.846-1.728-25.548-12.136-3.704-10.406 1.73-21.844 12.136-25.548 55.002-19.576 112.752-29.502 171.648-29.502 106.46 0 208.542 32.386 295.212 93.66 9.018 6.376 11.162 18.858 4.786 27.876zM703.598 922.922c-60.906 24.604-125.37 37.078-191.598 37.078-109.198 0-213.422-33.926-301.41-98.112-8.922-6.508-10.88-19.020-4.372-27.944 3.918-5.366 10.004-8.214 16.176-8.214 4.088 0 8.214 1.25 11.77 3.844 81.096 59.158 177.17 90.426 277.836 90.426 61.070 0 120.494-11.496 176.618-34.166 10.242-4.142 21.898 0.81 26.034 11.054 4.138 10.242-0.812 21.898-11.054 26.034zM922.922 753.402c8.434 12.452 12.974 27.122 12.974 42.494 0 20.3-7.906 39.386-22.26 53.74-14.354 14.356-33.44 22.26-53.74 22.26s-39.386-7.906-53.74-22.26c-14.356-14.354-22.26-33.44-22.26-53.74s7.906-39.386 22.26-53.74c14.354-14.356 33.44-22.26 53.74-22.26 11.486 0 22.58 2.534 32.65 7.332 59.886-81.304 91.454-177.45 91.454-279.228 0-61.44-11.63-121.198-34.568-177.612-4.16-10.232 0.762-21.9 10.994-26.060 2.468-1.002 5.018-1.478 7.526-1.478 7.896 0 15.376 4.708 18.534 12.472 24.892 61.222 37.514 126.048 37.514 192.678 0 111.448-34.906 216.67-101.078 305.402zM885.352 770.442c-6.798-6.8-15.84-10.544-25.456-10.544s-18.656 3.742-25.456 10.544c-6.8 6.798-10.544 15.84-10.544 25.456s3.744 18.656 10.544 25.456c6.798 6.8 15.84 10.544 25.456 10.544s18.656-3.744 25.456-10.544c6.8-6.798 10.544-15.84 10.544-25.456s-3.744-18.656-10.544-25.456zM206.53 142.532c-17.562 17.558-43.39 21.936-65.074 13.132-66.372 83.988-101.456 185.032-101.456 292.336 0 50.098 7.808 99.414 23.208 146.574 3.428 10.5-2.304 21.792-12.804 25.22-10.5 3.432-21.792-2.304-25.22-12.804-16.712-51.176-25.184-104.668-25.184-158.99 0-117.004 38.446-227.162 111.184-318.562 0.116-0.144 0.248-0.268 0.366-0.408-12.53-22.792-9.166-52.058 10.128-71.352 11.698-11.696 27.062-17.544 42.426-17.544s30.73 5.848 42.426 17.544c23.394 23.394 23.394 61.458 0 84.854zM178.246 85.962c-3.778-3.778-8.8-5.858-14.142-5.858s-10.364 2.080-14.142 5.858c-3.778 3.778-5.858 8.8-5.858 14.142s2.080 10.364 5.858 14.142c3.778 3.778 8.8 5.858 14.142 5.858s10.364-2.080 14.142-5.858c3.778-3.778 5.858-8.8 5.858-14.142s-2.080-10.364-5.858-14.142zM178.24 810.040c-3.72 3.72-8.86 5.86-14.14 5.86-5.26 0-10.42-2.14-14.14-5.86s-5.86-8.88-5.86-14.14 2.14-10.42 5.86-14.14c3.72-3.72 8.88-5.86 14.14-5.86s10.42 2.14 14.14 5.86 5.86 8.88 5.86 14.14-2.14 10.42-5.86 14.14zM874.040 114.24c-3.72 3.72-8.88 5.86-14.14 5.86s-10.42-2.14-14.14-5.86c-3.72-3.72-5.86-8.88-5.86-14.14s2.14-10.42 5.86-14.14c3.72-3.72 8.88-5.86 14.14-5.86s10.42 2.14 14.14 5.86 5.86 8.88 5.86 14.14-2.14 10.42-5.86 14.14z" />
<glyph unicode="&#xe917;" glyph-name="lifetime-update" d="M896.25 426.5c11.008 0 19.961 8.898 20 19.922v1.578c0 11.047-8.953 20-20 20s-20-8.953-20-20v-1.422c-0.039-11.047 8.875-20.039 19.922-20.078zM874.039 810.039c-96.703 96.703-225.281 149.961-362.039 149.961-11.047 0-20-8.953-20-20v-107.742c0-11.047 8.953-20 20-20 166.656 0 311.797-112.625 352.961-273.875 2.727-10.703 13.625-17.164 24.32-14.43 10.703 2.727 17.164 13.617 14.438 24.32-44.039 172.5-195.242 294.859-371.719 303.492v67.813c251.016-10.516 452-218.023 452-471.578 0-260.266-211.734-472-472-472s-472 211.734-472 472c0 126.070 49.094 244.602 138.242 333.758 7.813 7.805 7.813 20.469 0 28.281l-1.961 1.961h87.719v-87.711l-9.57 9.563c-3.75 3.75-8.836 5.859-14.141 5.859s-10.391-2.109-14.141-5.859c-76.352-76.359-118.406-177.875-118.406-285.852 0-222.906 181.352-404.258 404.258-404.258 183.32 0 344.047 123.633 390.852 300.656 2.82 10.68-3.547 21.625-14.227 24.445-10.688 2.828-21.625-3.539-24.445-14.219-42.172-159.492-186.992-270.883-352.18-270.883-200.852 0-364.258 163.406-364.258 364.258 0 90.602 32.859 176.148 92.93 243.047l29.188-29.188c5.719-5.719 14.328-7.43 21.797-4.336s12.344 10.383 12.344 18.477v156c0 11.047-8.953 20-20 20h-156c-8.086 0-15.383-4.875-18.477-12.344-3.094-7.477-1.383-16.078 4.336-21.797l22.227-22.234c-87.914-94.883-136.086-217.555-136.086-347.625 0-136.758 53.258-265.336 149.961-362.039s225.281-149.961 362.039-149.961 265.336 53.258 362.039 149.961c96.703 96.703 149.961 225.281 149.961 362.039s-53.258 265.336-149.961 362.039zM371 188h282c27.758 0 50.336 22.578 50.336 50.336v19.328c0 23.992-16.883 44.109-39.391 49.125-4.883 55.641-32.664 106.789-76.188 141.211 43.523 34.422 71.305 85.57 76.188 141.211 22.508 5.016 39.391 25.125 39.391 49.125v19.328c0 27.758-22.578 50.336-50.336 50.336h-62c-11.047 0-20-8.953-20-20s8.953-20 20-20h62c5.695 0 10.336-4.633 10.336-10.336v-19.328c0-5.703-4.641-10.336-10.336-10.336h-282c-5.695 0-10.336 4.633-10.336 10.336v19.328c0 5.703 4.641 10.336 10.336 10.336h62c11.047 0 20 8.953 20 20s-8.953 20-20 20h-62c-27.758 0-50.336-22.578-50.336-50.336v-19.328c0-23.992 16.883-44.109 39.391-49.125 4.883-55.641 32.664-106.789 76.188-141.211-43.523-34.422-71.305-85.57-76.188-141.211-22.508-5.016-39.391-25.125-39.391-49.125v-19.328c0-27.758 22.578-50.336 50.336-50.336zM663.336 238.336c0-5.703-4.641-10.336-10.336-10.336h-282c-5.695 0-10.336 4.633-10.336 10.336v19.328c0 5.703 4.641 10.336 10.336 10.336h282c5.703 0 10.336-4.633 10.336-10.336zM481.836 430.586c6.281 3.547 10.164 10.203 10.164 17.414s-3.883 13.867-10.164 17.414c-45.398 25.641-75.461 71.492-81.453 122.586h223.234c-5.992-51.094-36.055-96.945-81.453-122.586-6.281-3.547-10.164-10.203-10.164-17.414s3.883-13.867 10.164-17.414c45.398-25.641 75.461-71.492 81.453-122.586h-223.234c5.992 51.094 36.055 96.945 81.453 122.586zM526.141 673.859c3.719 3.719 5.859 8.883 5.859 14.141s-2.141 10.422-5.859 14.141c-3.719 3.719-8.883 5.859-14.141 5.859s-10.422-2.141-14.141-5.859c-3.719-3.719-5.859-8.883-5.859-14.141s2.141-10.422 5.859-14.141c3.719-3.719 8.883-5.859 14.141-5.859s10.422 2.141 14.141 5.859z" />
<glyph unicode="&#xe918;" glyph-name="multi-tool" d="M724 188c-11.040 0-20-8.96-20-20s8.96-20 20-20c11.040 0 20 8.96 20 20s-8.96 20-20 20zM300 188c-11.040 0-20-8.96-20-20s8.96-20 20-20 20 8.96 20 20c0 11.040-8.96 20-20 20zM1004 908h-160c-11.046 0-20-8.956-20-20v-540h-444.26c16.762 17.838 32.964 35.748 48.422 53.548 50.598 58.276 91.534 113.66 116.666 157.686 1.628-0.080 3.254-0.12 4.876-0.12 26.25 0 51.668 10.334 70.64 29.304 33.93 33.93 57.692 156.096 62.11 180.242 1.184 6.462-0.884 13.094-5.53 17.74s-11.276 6.712-17.742 5.534c-24.148-4.416-146.334-28.16-180.266-62.092-20.666-20.668-30.978-48.74-29.036-77.306-43.88-25.182-99.012-66.010-156.994-116.372-0.038-0.032-0.074-0.064-0.11-0.098-30.978-26.914-62.054-55.864-92.776-86.374v278.298c0 0.722-0.048 1.444-0.126 2.164-0.022 0.206-0.060 0.41-0.088 0.614-0.072 0.514-0.158 1.026-0.27 1.536-0.050 0.222-0.106 0.442-0.162 0.664-0.128 0.5-0.276 0.996-0.444 1.488-0.068 0.198-0.132 0.394-0.206 0.59-0.204 0.542-0.436 1.076-0.688 1.602-0.046 0.098-0.080 0.202-0.128 0.298l-0.144 0.286c-0.018 0.032-0.032 0.066-0.050 0.1l-79.806 159.612c-3.388 6.776-10.312 11.056-17.888 11.056s-14.5-4.28-17.888-11.056l-79.808-159.614c-0.018-0.032-0.032-0.066-0.050-0.1l-0.144-0.286c-0.048-0.098-0.082-0.2-0.128-0.298-0.252-0.526-0.484-1.060-0.688-1.602-0.074-0.196-0.138-0.392-0.206-0.59-0.168-0.492-0.316-0.986-0.444-1.488-0.056-0.22-0.112-0.44-0.162-0.664-0.112-0.51-0.198-1.020-0.27-1.536-0.028-0.206-0.066-0.408-0.088-0.614-0.076-0.718-0.124-1.44-0.124-2.162v-559.99c0-99.252 80.748-180 180-180h664c99.252 0 180 80.748 180 180v720c0 11.044-8.954 20-20 20zM507.202 701.556c15.444 15.446 77.834 33.682 130.002 45.13-11.458-52.16-29.702-114.54-45.148-129.984-14.24-14.24-34.54-20.37-54.294-16.396-0.002 0-0.004 0-0.006 0.002-11.592 2.326-22.158 7.996-30.556 16.392-8.084 8.086-13.658 18.22-16.122 29.332-4.498 20.174 1.53 40.928 16.124 55.524zM461.064 612.696c4.66-8.886 10.652-17.076 17.852-24.278 7.606-7.604 16.29-13.854 25.734-18.612-22.15-36.904-55.28-81.674-95.762-129.302-15.482 9.972-29.942 21.614-43.106 34.78-12.736 12.736-24.072 26.714-33.856 41.678 47.564 40.446 92.288 73.572 129.138 95.734zM200 392.748c33.468 34.568 67.52 67.35 101.546 97.724 10.57-15.53 22.582-30.104 35.95-43.474 13.792-13.792 28.838-26.124 44.876-36.904-18.498-20.724-37.938-41.518-58.046-62.094h-124.326v44.748zM100 843.28l55.164-110.328c-32.684-24.058-77.646-24.058-110.33 0l55.166 110.328zM40 689.176c18.806-9.478 39.398-14.25 60-14.25s41.194 4.772 60 14.25v-342.294c-48.322-5.366-90.926-29.934-120-65.886v408.18zM844 28h-664c-77.196 0-140 62.804-140 140s62.804 140 140 140h664c77.196 0 140-62.804 140-140s-62.804-140-140-140zM984 828h-40c-11.046 0-20-8.956-20-20s8.954-20 20-20h40v-40h-40c-11.046 0-20-8.956-20-20s8.954-20 20-20h40v-40h-40c-11.046 0-20-8.956-20-20s8.954-20 20-20h40v-40h-40c-11.046 0-20-8.956-20-20s8.954-20 20-20h40v-40h-40c-11.046 0-20-8.956-20-20s8.954-20 20-20h40v-40h-40c-11.046 0-20-8.956-20-20s8.954-20 20-20h40v-107.002c-29.074 35.95-71.678 60.518-120 65.884v521.118h120v-40zM844 228c-33.084 0-60-26.916-60-60s26.916-60 60-60 60 26.916 60 60-26.916 60-60 60zM844 148c-11.028 0-20 8.972-20 20s8.972 20 20 20c11.028 0 20-8.972 20-20s-8.972-20-20-20zM180 228c-33.084 0-60-26.916-60-60s26.916-60 60-60 60 26.916 60 60-26.916 60-60 60zM180 148c-11.028 0-20 8.972-20 20s8.972 20 20 20 20-8.972 20-20c0-11.028-8.972-20-20-20zM644 188h-264c-11.046 0-20-8.956-20-20s8.954-20 20-20h264c11.046 0 20 8.956 20 20s-8.954 20-20 20z" />
<glyph unicode="&#xe919;" glyph-name="download-arrow" d="M861.547 270.177c13.955 14.443 13.955 37.181 0 51.625-14.443 13.955-37.702 13.955-51.625 0l-261.766-261.766v863.824c0 20.136-16.005 36.14-36.14 36.14s-36.661-16.005-36.661-36.14v-863.824l-261.245 261.766c-14.443 13.955-37.181 13.955-51.625 0-13.955-14.443-13.955-37.181 0-51.625l323.735-323.735c13.955-13.955 37.181-13.955 51.625 0l323.702 323.735z" />
<glyph unicode="&#xe91a;" glyph-name="left-arrow" d="M334.018 797.137c14.436 14.436 37.164 14.436 51.6 0 13.949-13.949 13.949-37.164 0-51.080l-261.641-261.641h863.38c20.126 0 36.643-15.997 36.643-36.123s-16.517-36.643-36.643-36.643h-863.38l261.641-261.153c13.949-14.436 13.949-37.684 0-51.6-14.436-14.436-37.164-14.436-51.6 0l-323.581 323.581c-13.949 13.949-13.949 37.164 0 51.080l323.581 323.581z" />
<glyph unicode="&#xe91b;" glyph-name="right-arrow" d="M689.55 797.181c-13.95 14.438-37.168 14.438-51.606 0-13.95-13.95-13.95-37.168 0-51.086l261.674-261.674h-863.49c-20.129-0.033-36.128-16.032-36.128-36.16s15.999-36.648 36.128-36.648h863.49l-261.674-261.187c-13.95-14.438-13.95-37.689 0-51.606 14.438-14.438 37.689-14.438 51.606 0l323.622 323.622c14.438 13.95 14.438 37.168 0 51.086l-323.622 323.654z" />
<glyph unicode="&#xe91c;" glyph-name="browser" d="M153.6 72.534h34.134c9.438 0 17.066 7.646 17.066 17.066s-7.628 17.066-17.066 17.066h-34.134c-9.438 0-17.066-7.646-17.066-17.066s7.628-17.066 17.066-17.066zM631.466 226.134c0 9.42-7.628 17.066-17.066 17.066h-51.2c-9.438 0-17.066-7.646-17.066-17.066s7.628-17.066 17.066-17.066h51.2c9.438-0.002 17.066 7.644 17.066 17.066zM256 618.666h170.666c9.438 0 17.066 7.646 17.066 17.066s-7.628 17.066-17.066 17.066h-170.666c-9.438 0-17.066-7.646-17.066-17.066s7.628-17.066 17.066-17.066zM529.066 140.8h34.134c9.438 0 17.066 7.646 17.066 17.066s-7.628 17.066-17.066 17.066h-34.134c-9.438 0-17.066-7.646-17.066-17.066s7.628-17.066 17.066-17.066zM580.266 567.466c0-9.42 7.628-17.066 17.066-17.066h170.668c9.438 0 17.066 7.646 17.066 17.066s-7.628 17.066-17.066 17.066h-170.666c-9.438 0.002-17.068-7.644-17.068-17.066zM409.6 89.6c0-9.42 7.628-17.066 17.066-17.066h170.666c9.438 0 17.066 7.646 17.066 17.066s-7.628 17.066-17.066 17.066h-170.666c-9.438 0-17.066-7.646-17.066-17.066zM733.866 618.666c9.438 0 17.066 7.646 17.066 17.066s-7.628 17.066-17.066 17.066h-68.266c-9.438 0-17.066-7.646-17.066-17.066s7.628-17.066 17.066-17.066h68.266zM494.934 243.2h-102.4c-9.438 0-17.066-7.646-17.066-17.066s7.628-17.066 17.066-17.066h102.4c9.438 0 17.066 7.646 17.066 17.066s-7.628 17.066-17.066 17.066zM256 550.4h273.066c9.438 0 17.066 7.646 17.066 17.066s-7.628 17.066-17.066 17.066h-273.066c-9.438 0-17.066-7.646-17.066-17.066s7.628-17.066 17.066-17.066zM153.6 550.4h34.134c9.438 0 17.066 7.646 17.066 17.066s-7.628 17.066-17.066 17.066h-34.134c-9.438 0-17.066-7.646-17.066-17.066s7.628-17.066 17.066-17.066zM153.6 618.666h34.134c9.438 0 17.066 7.646 17.066 17.066s-7.628 17.066-17.066 17.066h-34.134c-9.438 0-17.066-7.646-17.066-17.066s7.628-17.066 17.066-17.066zM153.6 482.134h34.134c9.438 0 17.066 7.646 17.066 17.066s-7.628 17.066-17.066 17.066h-34.134c-9.438 0-17.066-7.646-17.066-17.066s7.628-17.066 17.066-17.066zM665.6-29.866h-580.266c-28.228 0-51.2 22.972-51.2 51.2v682.666c0 9.42-7.628 17.066-17.066 17.066s-17.068-7.646-17.068-17.066v-682.666c0-47.054 38.28-85.334 85.334-85.334h580.266c9.438 0 17.066 7.646 17.066 17.066s-7.628 17.068-17.066 17.068zM153.6 140.8h34.134c9.438 0 17.066 7.646 17.066 17.066s-7.628 17.066-17.066 17.066h-34.134c-9.438 0-17.066-7.646-17.066-17.066s7.628-17.066 17.066-17.066zM153.6 413.866h34.134c9.438 0 17.066 7.646 17.066 17.066s-7.628 17.066-17.066 17.066h-34.134c-9.438 0-17.066-7.646-17.066-17.066s7.628-17.066 17.066-17.066zM153.6 277.334h34.134c9.438 0 17.066 7.646 17.066 17.066s-7.628 17.066-17.066 17.066h-34.134c-9.438 0-17.066-7.646-17.066-17.066s7.628-17.066 17.066-17.066zM153.6 209.066h34.134c9.438 0 17.066 7.646 17.066 17.066s-7.628 17.066-17.066 17.066h-34.134c-9.438 0-17.066-7.646-17.066-17.066s7.628-17.066 17.066-17.066zM153.6 345.6h34.134c9.438 0 17.066 7.646 17.066 17.066s-7.628 17.066-17.066 17.066h-34.134c-9.438 0-17.066-7.646-17.066-17.066s7.628-17.066 17.066-17.066zM256 482.134h68.266c9.438 0 17.066 7.646 17.066 17.066s-7.628 17.066-17.066 17.066h-68.266c-9.438 0-17.066-7.646-17.066-17.066s7.628-17.066 17.066-17.066zM665.6 294.4c0 9.42-7.628 17.066-17.066 17.066h-119.466c-9.438 0-17.066-7.646-17.066-17.066s7.628-17.066 17.066-17.066h119.466c9.438 0 17.066 7.646 17.066 17.066zM256 209.066h68.266c9.438 0 17.066 7.646 17.066 17.066s-7.628 17.066-17.066 17.066h-68.266c-9.438 0-17.066-7.646-17.066-17.066s7.628-17.066 17.066-17.066zM1006.934 174.934h-25.994c-1.792 5.068-3.84 10.052-6.162 14.916l18.364 18.364c6.672 6.674 6.672 17.476 0 24.132l-48.264 48.264c-6.656 6.674-17.46 6.656-24.132 0.018l-18.38-18.364c-4.83 2.304-9.814 4.37-14.9 6.162v25.974c0 9.42-7.628 17.066-17.066 17.066h-68.25c-9.438 0-17.066-7.646-17.066-17.066v-25.976c-5.086-1.792-10.070-3.858-14.916-6.178l-18.38 18.38c-6.4 6.4-17.732 6.4-24.132 0l-48.248-48.264c-6.674-6.656-6.674-17.46 0-24.132l18.364-18.364c-2.322-4.864-4.386-9.848-6.178-14.934h-25.994c-9.438 0-17.066-7.646-17.066-17.066v-68.266c0-9.42 7.628-17.066 17.066-17.066h25.992c1.792-5.068 3.858-10.036 6.162-14.9l-18.364-18.364c-6.674-6.674-6.674-17.476 0-24.132l48.264-48.264c6.4-6.4 17.732-6.4 24.132 0l18.364 18.364c4.864-2.322 9.83-4.386 14.9-6.178v-25.992c0-9.42 7.628-17.066 17.066-17.066h68.266c9.438 0 17.066 7.646 17.066 17.066v25.992c5.086 1.792 10.052 3.858 14.9 6.162l18.38-18.38c3.208-3.208 7.544-5 12.066-5 4.54 0 8.874 1.792 12.066 5l48.264 48.264c6.674 6.656 6.674 17.46 0 24.132l-18.364 18.364c2.322 4.864 4.386 9.848 6.178 14.934h25.992c9.438 0 17.066 7.646 17.066 17.066v68.266c0.004 9.42-7.624 17.066-17.062 17.066zM989.866 106.666h-21.556c-7.782 0-14.574-5.274-16.52-12.818-2.782-10.804-7.048-21.128-12.714-30.686-3.96-6.708-2.902-15.258 2.628-20.77l15.224-15.224-24.132-24.132-15.224 15.24c-5.496 5.512-14.062 6.588-20.754 2.628-9.558-5.632-19.882-9.916-30.686-12.698-7.544-1.928-12.818-8.738-12.818-16.52v-21.556h-34.134v21.572c0 7.782-5.274 14.592-12.834 16.52-10.734 2.764-21.044 7.032-30.652 12.698-6.674 3.96-15.224 2.884-20.754-2.628l-15.224-15.224-24.132 24.132 15.224 15.224c5.512 5.512 6.588 14.046 2.646 20.754-5.666 9.558-9.932 19.882-12.714 30.686-1.946 7.526-8.738 12.8-16.52 12.8h-21.556v34.136h21.556c7.782 0 14.574 5.274 16.52 12.818 2.782 10.82 7.048 21.162 12.714 30.702 3.942 6.708 2.868 15.24-2.646 20.754l-15.206 15.224 24.116 24.132 15.224-15.224c5.53-5.53 14.062-6.604 20.736-2.646 9.54 5.632 19.882 9.898 30.738 12.714 7.526 1.946 12.8 8.738 12.8 16.52v21.538h34.116v-21.538c0-7.782 5.274-14.574 12.8-16.52 10.854-2.816 21.18-7.082 30.702-12.698 6.674-3.96 15.224-2.884 20.754 2.612l15.224 15.224 24.132-24.132-15.224-15.224c-5.512-5.512-6.588-14.046-2.646-20.754 5.666-9.558 9.932-19.882 12.714-30.686 1.946-7.544 8.738-12.818 16.52-12.818h21.556v-34.132zM256 140.8h204.8c9.438 0 17.066 7.646 17.066 17.066s-7.628 17.066-17.066 17.066h-204.8c-9.438 0-17.066-7.646-17.066-17.066s7.628-17.066 17.066-17.066zM836.266 174.934c-28.228 0-51.2-22.972-51.2-51.2s22.972-51.2 51.2-51.2 51.2 22.972 51.2 51.2-22.972 51.2-51.2 51.2zM836.266 106.666c-9.42 0-17.066 7.662-17.066 17.066s7.646 17.066 17.066 17.066 17.066-7.662 17.066-17.066-7.644-17.066-17.066-17.066zM938.666 960h-853.332c-47.054 0-85.334-38.28-85.334-85.334v-102.4c0-9.42 7.628-17.066 17.066-17.066h921.6c9.438 0 17.066 7.646 17.066 17.066s-7.628 17.066-17.066 17.066h-904.532v85.334c0 28.228 22.972 51.2 51.2 51.2h853.334c28.228 0 51.2-22.972 51.2-51.2v-580.266c0-9.42 7.628-17.066 17.066-17.066s17.066 7.646 17.066 17.066v580.266c0 47.054-38.28 85.334-85.334 85.334zM102.4 857.6c0-18.824 15.308-34.134 34.134-34.134 18.808 0 34.134 15.308 34.134 34.134 0 18.824-15.326 34.134-34.134 34.134-18.826 0-34.134-15.31-34.134-34.134zM204.8 857.6c0-18.824 15.308-34.134 34.134-34.134 18.808 0 34.134 15.308 34.134 34.134 0 18.824-15.326 34.134-34.134 34.134-18.826 0-34.134-15.31-34.134-34.134zM307.2 857.6c0-18.824 15.308-34.134 34.134-34.134 18.808 0 34.134 15.308 34.134 34.134 0 18.824-15.326 34.134-34.134 34.134-18.826 0-34.134-15.31-34.134-34.134zM256 72.534h102.4c9.438 0 17.066 7.646 17.066 17.066s-7.628 17.066-17.066 17.066h-102.4c-9.438 0-17.066-7.646-17.066-17.066s7.628-17.066 17.066-17.066zM733.866 413.866c9.438 0 17.066 7.646 17.066 17.066s-7.628 17.066-17.066 17.066h-136.534c-9.438 0-17.066-7.646-17.066-17.066s7.628-17.066 17.066-17.066h136.534zM853.334 499.2c0 9.42-7.628 17.066-17.066 17.066h-273.068c-9.438 0-17.066-7.646-17.066-17.066s7.628-17.066 17.066-17.066h273.066c9.438 0 17.068 7.646 17.068 17.066zM597.334 652.8h-102.4c-9.438 0-17.066-7.646-17.066-17.066s7.628-17.066 17.066-17.066h102.4c9.438 0 17.066 7.646 17.066 17.066s-7.628 17.066-17.066 17.066zM785.066 362.666c0 9.42-7.628 17.066-17.066 17.066h-273.066c-9.438 0-17.066-7.646-17.066-17.066s7.628-17.066 17.066-17.066h273.066c9.438 0 17.066 7.646 17.066 17.066zM256 277.334h204.8c9.438 0 17.066 7.646 17.066 17.066s-7.628 17.066-17.066 17.066h-204.8c-9.438 0-17.066-7.646-17.066-17.066s7.628-17.066 17.066-17.066zM392.534 516.266c-9.438 0-17.066-7.646-17.066-17.066s7.628-17.066 17.066-17.066h102.4c9.438 0 17.066 7.646 17.066 17.066s-7.628 17.066-17.066 17.066h-102.4zM256 345.6h170.666c9.438 0 17.066 7.646 17.066 17.066s-7.628 17.066-17.066 17.066h-170.666c-9.438 0-17.066-7.646-17.066-17.066s7.628-17.066 17.066-17.066zM256 413.866h273.066c9.438 0 17.066 7.646 17.066 17.066s-7.628 17.066-17.066 17.066h-273.066c-9.438 0-17.066-7.646-17.066-17.066s7.628-17.066 17.066-17.066z" />
<glyph unicode="&#xe91d;" glyph-name="bucket" d="M545.7 960c-196.642 0-405.402-46.968-409.412-134.008-23.672-130.286-97.092-556.424-54.614-607.318 5.172-6.196 12.186-9.608 19.78-9.608 24.234 0 53.128 18.91 89.634 244.736 18.5 114.398 30.14 230.28 30.26 231.424 0.938 9.386-5.906 17.75-15.274 18.688-9.454 0.972-17.75-5.906-18.688-15.274-18.824-188.364-54.614-399.94-82.67-440.15-13.21 52.702 16.332 292.66 56.832 524.8 42.188-38.588 127.232-59.512 179.354-69.102v-102.588c0-28.228 22.972-51.2 51.2-51.2 5.99 0 11.742 1.024 17.066 2.918v-2.918c0-37.65 30.618-68.266 68.266-68.266 37.65 0 68.266 30.618 68.266 68.266v37.052c5.342-1.894 11.076-2.918 17.066-2.918 28.228 0 51.2 22.972 51.2 51.2v53.010c48.060 2.542 94.618 7.834 136.534 15.462v-34.338c0-28.228 22.972-51.2 51.2-51.2s51.2 22.972 51.2 51.2v61.012c28.842 10.496 51.456 22.476 68.266 35.498v-164.778c0-26.846-58.914-63.71-190.532-85.572-8.244-1.366-14.268-8.482-14.268-16.828v-341.334c0-5.018 2.202-9.78 6.024-13.022 3.106-2.628 7.032-4.044 11.042-4.044 0.938 0 1.86 0.068 2.798 0.24 56.338 9.336 138.94 28.178 184.934 62.532v-131.038c0-42.752-142.83-102.4-375.466-102.4s-375.466 59.648-375.466 102.4v119.466c0 9.42-7.628 17.066-17.066 17.066s-17.066-7.646-17.066-17.066v-119.466c0-88.678 211.030-136.534 409.6-136.534s409.6 47.854 409.6 136.534v750.932c0 88.68-211.030 136.534-409.6 136.534zM921.166 260.266c0-25.464-52.958-59.922-170.666-82.056v306.636c55.348 10.052 128.426 28.604 170.666 60.212v-284.792zM830.44 759.194c-6.98-2.322-11.674-8.858-11.674-16.196v-73.13c0-9.404-7.646-17.066-17.066-17.066s-17.066 7.662-17.066 17.066v55.058c0 5.138-2.322 10.002-6.298 13.244-3.994 3.242-9.25 4.488-14.25 3.464-49.75-10.394-107.794-17.152-167.868-19.542-9.148-0.358-16.384-7.884-16.384-17.050v-69.308c0-9.404-7.646-17.066-17.066-17.066s-17.066 7.662-17.066 17.066c0 9.42-7.628 17.066-17.066 17.066s-17.066-7.646-17.066-17.066v-85.334c0-18.824-15.308-34.134-34.134-34.134-18.808 0-34.134 15.308-34.134 34.134v51.2c0 9.42-7.628 17.066-17.066 17.066s-17.066-7.646-17.066-17.066c0-9.404-7.646-17.066-17.066-17.066s-17.066 7.662-17.066 17.066v97.228c48.162-6.998 99.532-11.076 153.378-11.792h0.222c9.336 0 16.948 7.492 17.066 16.844 0.12 9.42-7.424 17.17-16.844 17.288-59.512 0.786-116.054 5.564-168.056 14.2-0.018 0-0.052-0.018-0.068 0-130.902 21.742-190.498 60.91-190.498 88.098 0 42.752 142.83 102.4 375.466 102.4s375.466-59.648 375.466-102.4c-0.004-20.958-34.768-45.584-90.73-64.272zM545.7 345.6c0 33.126-46.284 86.392-55.57 96.734-6.468 7.22-18.926 7.22-25.396 0-9.284-10.342-55.57-63.608-55.57-96.734 0-37.65 30.618-68.266 68.266-68.266 37.652 0 68.27 30.616 68.27 68.266zM443.3 345.6c0 10.872 16.042 36.284 34.134 58.914 18.090-22.63 34.134-48.042 34.134-58.914 0-18.824-15.308-34.134-34.134-34.134-18.808 0-34.134 15.31-34.134 34.134z" />
<glyph unicode="&#xe91e;" glyph-name="design-skills" d="M256 413.866h102.4c9.42 0 17.066 7.646 17.066 17.066s-7.646 17.066-17.066 17.066h-85.334v34.134h17.066c9.42 0 17.066 7.646 17.066 17.066s-7.646 17.066-17.066 17.066h-17.066v34.136h17.066c9.42 0 17.066 7.646 17.066 17.066s-7.646 17.066-17.066 17.066h-17.066v34.134h85.334c9.42 0 17.066 7.646 17.066 17.066s-7.646 17.066-17.066 17.066h-85.334v34.134h17.066c9.42 0 17.066 7.646 17.066 17.066s-7.646 17.066-17.066 17.066h-17.066v34.136h17.066c9.42 0 17.066 7.646 17.066 17.066s-7.646 17.066-17.066 17.066h-17.066v34.134h85.334c9.42 0 17.066 7.646 17.066 17.066s-7.646 17.068-17.066 17.068h-85.334v68.266h238.934v-494.934c0-9.42 7.646-17.066 17.066-17.066s17.066 7.646 17.066 17.066v512c0 9.42-7.646 17.066-17.066 17.066h-273.066c-9.42 0-17.066-7.646-17.066-17.066v-512c0-9.42 7.646-17.066 17.066-17.066zM17.066 413.866c9.42 0 17.066 7.646 17.066 17.066v443.734c0 24.884 26.316 51.2 51.2 51.2h102.4c9.42 0 17.066 7.646 17.066 17.066s-7.644 17.068-17.064 17.068h-102.4c-43.862 0-85.334-41.472-85.334-85.334v-443.734c0-9.42 7.646-17.066 17.066-17.066zM768 755.2c-9.42 0-17.066-7.646-17.066-17.066v-307.2c0-9.42 7.646-17.066 17.066-17.066s17.066 7.646 17.066 17.066v307.2c0 9.42-7.646 17.066-17.066 17.066zM665.6 738.134v-307.2c0-9.42 7.646-17.066 17.066-17.066s17.066 7.646 17.066 17.066v307.2c0 9.42-7.646 17.066-17.066 17.066s-17.066-7.646-17.066-17.066zM699.734-29.866h-17.066v17.066c0 9.42-7.646 17.066-17.066 17.066s-17.066-7.646-17.066-17.066v-17.066h-34.136v17.066c0 9.42-7.646 17.066-17.066 17.066s-17.066-7.646-17.066-17.066v-17.066h-34.134v17.066c0 9.42-7.646 17.066-17.066 17.066s-17.066-7.646-17.066-17.066v-17.066h-34.134v17.066c0 9.42-7.646 17.066-17.066 17.066s-17.066-7.646-17.066-17.066v-17.066h-34.136v17.066c0 9.42-7.646 17.066-17.066 17.066s-17.066-7.646-17.066-17.066v-17.066h-34.134v17.066c0 9.42-7.646 17.066-17.066 17.066s-17.066-7.646-17.066-17.066v-17.066h-34.134v17.066c0 9.42-7.646 17.066-17.066 17.066s-17.066-7.646-17.066-17.066v-17.066h-34.136v17.066c0 9.42-7.646 17.066-17.066 17.066s-17.066-7.646-17.066-17.066v-17.066h-34.134v17.066c0 9.42-7.646 17.066-17.066 17.066s-17.068-7.646-17.068-17.066v-17.066h-17.066c-9.42 0-17.066-7.646-17.066-17.066s7.644-17.068 17.066-17.068h614.4c9.42 0 17.066 7.646 17.066 17.066s-7.646 17.068-17.066 17.068zM597.334 413.866c9.42 0 17.066 7.646 17.066 17.066v370.57l68.266 109.226 54.546-87.262h-71.612c-9.42 0-17.066-7.646-17.066-17.066s7.646-17.066 17.066-17.066h102.4c6.212 0 11.912 3.362 14.934 8.79 3.004 5.428 2.834 12.066-0.46 17.322l-85.334 136.532c-6.246 9.984-22.698 9.984-28.946 0l-85.334-136.532c-1.69-2.714-2.594-5.836-2.594-9.046v-375.466c0-9.422 7.646-17.068 17.068-17.068zM938.666 960h-170.666c-9.42 0-17.066-7.646-17.066-17.066s7.646-17.066 17.066-17.066h170.666c24.884 0 51.2-26.316 51.2-51.2v-614.4c0-24.884-26.316-51.2-51.2-51.2h-853.332c-24.884 0-51.2 26.316-51.2 51.2v85.332h904.534c9.42 0 17.066 7.646 17.066 17.066s-7.646 17.066-17.066 17.066h-921.602c-9.42 0-17.066-7.646-17.066-17.066v-102.4c0-43.862 41.472-85.334 85.334-85.334h853.334c43.862 0 85.334 41.472 85.334 85.334v614.4c-0.002 43.862-41.474 85.334-85.336 85.334zM477.866 277.334c0-18.824 15.308-34.134 34.134-34.134 18.824 0 34.134 15.308 34.134 34.134 0 18.824-15.308 34.134-34.134 34.134-18.824-0.002-34.134-15.31-34.134-34.134zM597.334 38.4c9.42 0 17.066 7.646 17.066 17.066v68.266c0 9.42-7.646 17.066-17.066 17.066s-17.066-7.646-17.066-17.066v-68.266c-0.002-9.42 7.644-17.066 17.066-17.066zM443.734 55.466v68.266c0 9.42-7.646 17.066-17.066 17.066s-17.066-7.646-17.066-17.066v-68.266c0-9.42 7.646-17.066 17.066-17.066s17.066 7.646 17.066 17.066zM887.466 38.4h-34.134c-37.65 0-68.266-30.618-68.266-68.266v-17.066c0-9.42 7.646-17.066 17.066-17.066h136.534c9.42 0 17.066 7.646 17.066 17.066v17.066c0.002 37.648-30.616 68.266-68.266 68.266zM819.2-29.866c0 18.824 15.308 34.134 34.134 34.134h34.134c18.824 0 34.134-15.308 34.134-34.134h-102.402z" />
<glyph unicode="&#xe91f;" glyph-name="paper-bag" d="M895.872 674.88c-1.504 16.48-15.264 29.12-31.872 29.12h-160v64c0 105.888-86.080 192-192 192-105.888 0-192-86.112-192-192v-64h-160c-16.576 0-30.368-12.64-31.872-29.12l-64-704c-0.8-8.928 2.176-17.824 8.256-24.448 6.048-6.656 14.624-10.432 23.616-10.432h832c8.992 0 17.568 3.776 23.616 10.432 6.016 6.624 9.056 15.488 8.256 24.448l-64 704zM384 768c0 70.592 57.44 128 128 128s128-57.408 128-128v-64h-256v64zM131.072 0l58.144 640h130.784v-72.864c-19.072-11.104-32-31.52-32-55.136 0-35.328 28.672-64 64-64s64 28.672 64 64c0 23.616-12.928 44.032-32 55.136v72.864h256v-72.864c-19.072-11.104-32-31.488-32-55.136 0-35.328 28.672-64 64-64s64 28.672 64 64c0 23.616-12.896 44.032-32 55.136v72.864h130.784l58.144-640h-761.856z" />
<glyph unicode="&#xe920;" glyph-name="close" d="M14.501 874.562c-19.2 19.2-19.2 51.155 0 71.027 19.871 19.2 51.155 19.2 71.027 0l426.204-426.92 426.92 426.92c19.2 19.2 51.155 19.2 70.31 0 19.871-19.871 19.871-51.871 0-71.027l-426.204-426.249 426.204-426.92c19.871-19.2 19.871-51.155 0-71.027-19.2-19.2-51.155-19.2-70.31 0l-426.92 426.92-426.204-426.92c-19.871-19.2-51.155-19.2-71.027 0-19.2 19.871-19.2 51.871 0 71.027l426.204 426.92-426.204 426.249z" />
<glyph unicode="&#xe921;" glyph-name="download-square" d="M659.794 680.247v-63.34h300.866v-601.732h-897.32v601.732h300.866v63.34h-364.206v-728.412h1024v728.412zM362.927 420.329l149.073-149.075 149.073 149.075-44.786 44.786-72.617-72.615v551.666h-63.34v-551.666l-72.617 72.615z" />
<glyph unicode="&#xe922;" glyph-name="coffee-cup" d="M789.328 554.683h-597.348c-35.287 0-64.002-28.715-64.002-64.002v-42.667c0-152.238 84.098-290.311 219.439-360.328 10.454-5.376 23.339-1.322 28.759 9.174 5.376 10.454 1.322 23.339-9.174 28.759-121.091 62.635-196.357 186.158-196.357 322.398v42.667c0 11.776 9.558 21.335 21.335 21.335h597.348c11.776 0 21.335-9.558 21.335-21.335v-42.667c0-136.237-75.266-259.76-196.399-322.354-10.496-5.418-14.55-18.304-9.174-28.759 3.798-7.338 11.264-11.562 18.986-11.562 3.328 0 6.656 0.768 9.77 2.39 135.385 69.976 219.483 208.005 219.483 360.286v42.667c0 35.283-28.717 63.997-64.002 63.997zM979.753 114.864c-3.328 7.978-11.094 13.184-19.712 13.184h-938.688c-8.618 0-16.384-5.206-19.712-13.184s-1.494-17.152 4.608-23.255l47.831-47.873c28.247-28.203 65.708-43.735 105.602-43.735h661.946c39.895 0 77.4 15.53 105.688 43.735l47.831 47.873c6.1 6.102 7.934 15.276 4.606 23.255zM897.107 73.903c-20.138-20.138-46.977-31.233-75.436-31.233h-661.99c-28.459 0-55.297 11.094-75.436 31.233l-11.434 11.434h835.73l-11.434-11.434zM982.741 453.944c-57.473 36.951-149.293-3.158-159.578-7.808-10.71-4.906-15.488-17.536-10.582-28.289s17.494-15.488 28.289-10.582c20.566 9.344 86.53 31.489 118.787 10.71 14.55-9.344 21.675-27.479 21.675-55.297 0-85.42-172.292-137.049-238.812-149.764l-15.104-2.986c-11.562-2.262-19.072-13.482-16.81-25.047 2.006-10.154 10.922-17.194 20.906-17.194 1.366 0 2.73 0.128 4.138 0.426l14.976 2.944c11.178 2.134 273.372 53.547 273.372 191.62 0.002 42.923-13.906 73.602-41.257 91.266zM656.759 733.375c34.689 43.351 34.689 111.235 0 154.586-7.382 9.216-20.736 10.752-29.995 3.328-9.216-7.382-10.71-20.778-3.328-29.995 21.975-27.435 21.975-73.816-0.042-101.336-34.731-43.351-34.731-111.235 0-154.586 4.224-5.29 10.41-8.022 16.682-8.022 4.65 0 9.386 1.536 13.312 4.694 9.216 7.382 10.71 20.822 3.328 29.995-22.017 27.437-22.017 73.816 0.042 101.336zM528.586 733.375c34.731 43.351 34.731 111.235 0 154.586-7.338 9.216-20.778 10.71-29.995 3.328s-10.71-20.822-3.328-29.995c22.017-27.435 22.017-73.816-0.042-101.336-34.689-43.351-34.689-111.235 0-154.586 4.224-5.29 10.41-8.022 16.682-8.022 4.65 0 9.344 1.536 13.312 4.694 9.216 7.382 10.71 20.778 3.328 29.995-21.975 27.437-21.975 73.816 0.042 101.336zM400.753 733.333c34.689 43.351 34.689 111.235 0 154.586-7.338 9.216-20.736 10.752-29.995 3.328-9.174-7.338-10.666-20.778-3.328-29.953 21.975-27.435 21.975-73.816-0.042-101.336-34.731-43.351-34.731-111.235 0-154.586 4.224-5.29 10.41-8.022 16.682-8.022 4.65 0 9.386 1.536 13.312 4.65 9.216 7.382 10.71 20.822 3.328 29.995-22.017 27.481-22.017 73.818 0.042 101.338z" />
<glyph unicode="&#xe923;" glyph-name="pause-button" d="M73.143-64h292.571v1024h-292.571v-1024zM658.286 960v-1024h292.571v1024h-292.571z" />
<glyph unicode="&#xe924;" glyph-name="play-button" d="M879.393 468.078l-707.064 487.631c-7.485 5.145-17.189 5.681-25.186 1.512-8.022-4.218-13.044-12.508-13.044-21.578v-975.261c0-9.070 5.023-17.384 13.044-21.602 3.56-1.853 7.461-2.779 11.337-2.779 4.852 0 9.679 1.463 13.849 4.316l707.064 487.631c6.607 4.559 10.533 12.044 10.533 20.066s-3.95 15.507-10.533 20.066z" />
<glyph unicode="&#xe925;" glyph-name="telemarketing" d="M930.903 727.261h-350.477l248.298 190.998c10.204 7.841 12.091 22.455 4.272 32.635-7.863 10.204-22.477 12.091-32.635 4.272l-288.36-221.815-288.36 221.815c-10.228 7.841-24.796 5.954-32.635-4.272-7.817-10.182-5.932-24.796 4.272-32.635l248.298-190.998h-350.477c-51.34 0-93.090-41.748-93.090-93.090v-558.536c0-43.295 29.705-79.794 69.817-90.136v-26.227c0-12.864 10.409-23.273 23.273-23.273h837.804c12.864 0 23.273 10.409 23.273 23.273v26.227c40.112 10.342 69.817 46.841 69.817 90.136v558.536c-0.002 51.34-41.751 93.090-93.090 93.090zM977.447 75.634c0-25.658-20.886-46.544-46.544-46.544-12.864 0-23.273-10.409-23.273-23.273v-23.273h-791.261v23.273c0 12.864-10.409 23.273-23.273 23.273-25.658 0-46.544 20.886-46.544 46.544v558.536c0 25.658 20.886 46.544 46.544 46.544h837.804c25.658 0 46.544-20.886 46.544-46.544v-558.536zM851.814 616.147c-54.045 6.726-169.52 18.022-335.835 18.022-166.247 0-281.768-11.295-335.835-18.022-34.023-4.25-60.318-26.022-67.022-55.5-9.137-40.409-20.022-112.929-20.022-229.020 0-116.088 10.887-188.611 20.022-229.041 6.705-29.454 32.999-51.226 67.044-55.476 54.045-6.726 169.566-18.022 335.813-18.022 166.315 0 281.79 11.295 335.835 18.022 34.045 4.25 60.363 26.046 67.022 55.5 9.137 40.341 20.046 112.816 20.046 229.020 0 116.202-10.909 188.678-20.046 229.020-6.661 29.454-32.978 51.25-67.022 55.498zM873.426 112.884c-2.249-9.955-13.25-17.819-27.386-19.59-52.954-6.591-166.269-17.659-330.062-17.659-163.747 0-277.086 11.068-330.062 17.659-14.114 1.774-25.136 9.637-27.386 19.59-8.614 38.090-18.886 106.953-18.886 218.746 0 111.795 10.272 180.656 18.886 218.724 2.249 9.977 13.272 17.84 27.386 19.614 52.976 6.591 166.315 17.659 330.062 17.659 163.793 0 277.108-11.068 330.062-17.659 14.136-1.774 25.136-9.637 27.386-19.59 8.635-38.046 18.91-106.862 18.91-218.746-0.002-111.886-10.274-180.704-18.91-218.748zM767.996 354.902h-46.544c-12.864 0-23.273-10.409-23.273-23.273s10.409-23.273 23.273-23.273h46.544c12.864 0 23.273 10.409 23.273 23.273s-10.409 23.273-23.273 23.273zM751.541 534.262l-46.544-46.544c-9.091-9.091-9.091-23.819 0-32.908 4.545-4.545 10.501-6.818 16.455-6.818s11.908 2.273 16.455 6.818l46.544 46.544c9.091 9.091 9.091 23.819 0 32.908-9.091 9.091-23.819 9.091-32.91 0zM737.905 208.45c-9.091 9.091-23.819 9.091-32.908 0-9.091-9.091-9.091-23.819 0-32.908l46.544-46.544c4.545-4.545 10.501-6.818 16.455-6.818s11.908 2.273 16.455 6.818c9.091 9.091 9.091 23.819 0 32.908l-46.546 46.544zM628.362 541.080c-12.864 0-23.273-10.409-23.273-23.273v-29.445l-327.4-102.315c-3.246 8.941-11.616 15.397-21.685 15.397-12.864 0-23.273-10.409-23.273-23.273v-93.090c0-12.864 10.409-23.273 23.273-23.273 10.069 0 18.438 6.458 21.685 15.397l48.178-15.054c0-0.107-0.046-0.236-0.046-0.345 0-51.34 41.748-93.090 93.090-93.090 30.698 0 58.662 15.966 75.797 40.671l110.381-34.494v-29.448c0-12.864 10.409-23.273 23.273-23.273s23.273 10.409 23.273 23.273v372.365c0 12.862-10.409 23.271-23.273 23.271zM418.911 215.268c-20.288 0-37.125 13.243-43.476 31.398l70.908-22.158c-7.774-5.795-17.208-9.24-27.432-9.24zM605.089 223.655l-325.812 101.802v12.347l325.812 101.802v-215.951z" />
<glyph unicode="&#xe926;" glyph-name="computer" d="M632 268c-11.039 0-20-8.961-20-20s8.961-20 20-20 20 8.961 20 20-8.961 20-20 20zM924 960h-824c-55.141 0-100-44.859-100-100v-612c0-55.141 44.859-100 100-100h312v-92h-20c-26.703 0-51.805-10.406-70.703-29.297-18.891-18.898-29.297-44-29.297-70.703 0-11.047 8.953-20 20-20h400c11.047 0 20 8.953 20 20 0 55.141-44.859 100-100 100h-20v92h312c55.141 0 100 44.859 100 100v612c0 55.141-44.859 100-100 100zM100 920h824c33.086 0 60-26.914 60-60v-512h-92v460c0 11.047-8.953 20-20 20h-160c-11.047 0-20-8.953-20-20v-460h-100.109c-0.211 20.688-0.75 41.078-1.609 60.859-3.5 81.453-11.477 136.016-15.625 160.016 41.266 30.383 52.531 86.695 27.305 130.445l-69.32 120.063c-3.578 6.188-10.18 10-17.32 10-7.148 0-13.75-3.813-17.32-10l-69.352-120.070c-23.781-41.25-15.352-94.68 22.008-126.211-4.328-23.93-13.063-80.445-16.859-164.203-0.898-19.992-1.469-40.398-1.688-60.898h-100.109v300c0 3.172-0.75 6.063-1.977 8.633-0.055 0.102-0.086 0.211-0.133 0.313l-80 160c-3.391 6.773-10.313 11.055-17.891 11.055s-14.5-4.281-17.891-11.055l-80-160c-0.047-0.102-0.078-0.211-0.125-0.313-1.25-2.594-1.984-5.531-1.984-8.633v-300h-92v512c0 33.086 26.914 60 60 60zM732 348v440h120v-40h-20c-11.047 0-20-8.953-20-20s8.953-20 20-20h20v-60h-20c-11.047 0-20-8.953-20-20s8.953-20 20-20h20v-60h-20c-11.047 0-20-8.953-20-20s8.953-20 20-20h20v-80h-20c-11.047 0-20-8.953-20-20s8.953-20 20-20h20v-40zM515.32 549.383c7.266 0 14.5 0.836 21.578 2.398 3.711-23.789 9.164-65.883 12.391-123.781h-74.445c3.383 57.859 9.094 100.609 13.039 125.203 8.859-2.523 18.086-3.82 27.438-3.82zM515.32 589.383c-45.711 0-75.188 49.75-52.023 89.938l52.023 90.063 51.992-90.055c23.078-40.023-5.992-89.945-51.992-89.945zM473.008 388h78.039c0.422-13.141 0.711-26.508 0.852-40h-79.789c0.148 13.406 0.453 26.773 0.898 40zM252 348v280h40v-280zM172 348v280h40v-280zM184.359 668l47.641 95.281 47.641-95.281zM688.57-24h-353.164c2.938 8.336 7.734 15.977 14.172 22.422 11.344 11.336 26.406 17.578 42.422 17.578h240c26.078 0 48.32-16.719 56.57-40zM572 56h-120v92h120zM924 188h-824c-33.086 0-60 26.914-60 60v60h944v-60c0-33.086-26.914-60-60-60zM552 268h-120c-11.047 0-20-8.953-20-20s8.953-20 20-20h120c11.047 0 20 8.953 20 20s-8.953 20-20 20z" />
<glyph unicode="&#xe927;" glyph-name="video-camera" d="M632 528c-11.039 0-20-8.961-20-20s8.961-20 20-20 20 8.961 20 20-8.961 20-20 20zM632 408c-11.039 0-20-8.961-20-20s8.961-20 20-20 20 8.961 20 20-8.961 20-20 20zM152 328c-11.039 0-20-8.961-20-20s8.961-20 20-20 20 8.961 20 20-8.961 20-20 20zM1013.25 685.734c-6.609 3.445-14.578 2.93-20.695-1.336l-166.844-116.398h-53.711v20c0 33.086-26.914 60-60 60h-74.336c33.281 29.344 54.336 72.242 54.336 120 0 88.227-71.773 160-160 160-60.18 0-112.688-33.414-140-82.648-27.313 49.234-79.82 82.648-140 82.648-88.227 0-160-71.773-160-160 0-47.758 21.055-90.656 54.336-120h-86.336c-33.086 0-60-26.914-60-60v-360c0-33.086 26.914-60 60-60h112v-60c0-11.047 8.953-20 20-20h60v-100c0-11.047 8.953-20 20-20h240c11.047 0 20 8.953 20 20v100h60c11.047 0 20 8.953 20 20v60h100c33.086 0 60 26.914 60 60v60h53.711l166.844-116.406c6.047-4.211 14.016-4.813 20.695-1.328 6.609 3.453 10.75 10.281 10.75 17.734v480c0 7.453-4.141 14.281-10.75 17.734zM532 888c66.172 0 120-53.836 120-120 0-66.172-53.828-120-120-120s-120 53.828-120 120c0 66.164 53.828 120 120 120zM426.336 648h-68.68c13.742 12.109 25.398 26.523 34.344 42.648 8.945-16.125 20.602-30.539 34.336-42.648zM132 768c0 66.164 53.828 120 120 120s120-53.836 120-120c0-66.172-53.828-120-120-120s-120 53.828-120 120zM492 8h-200v80h200zM572 128h-360v40h360zM732 228c0-11.031-8.969-20-20-20h-652c-11.031 0-20 8.969-20 20v360c0 11.023 8.969 20 20 20h652c11.031 0 20-8.977 20-20zM772 528h40v-200h-40zM984 226.336l-132 92.094v219.133l132 92.094zM252 828c-33.086 0-60-26.914-60-60s26.914-60 60-60 60 26.914 60 60-26.914 60-60 60zM252 748c-11.031 0-20 8.969-20 20 0 11.023 8.969 20 20 20s20-8.977 20-20c0-11.031-8.969-20-20-20zM532 708c33.086 0 60 26.914 60 60s-26.914 60-60 60-60-26.914-60-60 26.914-60 60-60zM532 788c11.031 0 20-8.977 20-20 0-11.031-8.969-20-20-20s-20 8.969-20 20c0 11.023 8.969 20 20 20zM452 388v120c0 11.047-8.953 20-20 20h-280c-11.047 0-20-8.953-20-20v-120c0-11.047 8.953-20 20-20h280c11.047 0 20 8.953 20 20zM412 408h-240v80h240zM632 328h-400c-11.047 0-20-8.953-20-20s8.953-20 20-20h400c11.047 0 20 8.953 20 20s-8.953 20-20 20z" />
<glyph unicode="&#xe928;" glyph-name="star" d="M793.6-12.8c-4.198 0-8.397 1.024-12.237 3.123l-269.363 146.893-269.363-146.893c-8.602-4.71-19.098-4.045-27.085 1.638s-12.032 15.411-10.394 25.088l49.050 294.195-195.482 195.482c-6.758 6.758-9.216 16.794-6.298 25.907s10.701 15.872 20.173 17.459l294.349 49.050 122.163 244.326c4.352 8.653 13.21 14.131 22.886 14.131s18.586-5.478 22.886-14.131l122.163-244.326 294.349-49.050c9.472-1.587 17.254-8.294 20.173-17.459s0.512-19.149-6.298-25.907l-195.482-195.482 49.050-294.195c1.587-9.677-2.458-19.405-10.394-25.088-4.403-3.123-9.626-4.762-14.848-4.762zM512 192c4.198 0 8.448-1.024 12.237-3.123l235.469-128.41-42.547 255.334c-1.382 8.141 1.28 16.486 7.168 22.323l169.626 169.626-258.15 43.008c-8.090 1.331-15.002 6.502-18.688 13.824l-105.114 210.227-105.114-210.227c-3.686-7.322-10.598-12.442-18.688-13.824l-258.15-43.008 169.626-169.626c5.837-5.837 8.499-14.131 7.168-22.323l-42.547-255.334 235.469 128.41c3.84 2.099 8.038 3.123 12.237 3.123z" />
<glyph unicode="&#xe929;" glyph-name="briefcase" d="M947.2 704h-230.4v76.8c0 42.342-34.458 76.8-76.8 76.8h-256c-42.342 0-76.8-34.458-76.8-76.8v-76.8h-230.4c-42.342 0-76.8-34.458-76.8-76.8v-563.2c0-42.342 34.458-76.8 76.8-76.8h870.4c42.342 0 76.8 34.458 76.8 76.8v563.2c0 42.342-34.458 76.8-76.8 76.8zM358.4 780.8c0 14.131 11.469 25.6 25.6 25.6h256c14.131 0 25.6-11.469 25.6-25.6v-76.8h-307.2v76.8zM76.8 652.8h870.4c14.131 0 25.6-11.469 25.6-25.6v-384h-102.4v25.6c0 14.131-11.469 25.6-25.6 25.6h-102.4c-14.131 0-25.6-11.469-25.6-25.6v-25.6h-409.6v25.6c0 14.131-11.469 25.6-25.6 25.6h-102.4c-14.131 0-25.6-11.469-25.6-25.6v-25.6h-102.4v384c0 14.131 11.469 25.6 25.6 25.6zM819.2 243.2v-51.2h-51.2v51.2h51.2zM256 243.2v-51.2h-51.2v51.2h51.2zM947.2 38.4h-870.4c-14.131 0-25.6 11.469-25.6 25.6v128h102.4v-25.6c0-14.131 11.469-25.6 25.6-25.6h102.4c14.131 0 25.6 11.469 25.6 25.6v25.6h409.6v-25.6c0-14.131 11.469-25.6 25.6-25.6h102.4c14.131 0 25.6 11.469 25.6 25.6v25.6h102.4v-128c0-14.131-11.469-25.6-25.6-25.6z" />
<glyph unicode="&#xe92a;" glyph-name="heart" d="M486.4-12.8c-4.301 0-8.55 1.075-12.442 3.226-4.813 2.662-119.091 66.611-235.11 171.366-68.659 61.952-123.443 125.338-162.97 188.416-50.381 80.435-75.878 160.717-75.878 238.592 0 148.224 120.576 268.8 268.8 268.8 50.176 0 103.475-18.79 150.067-52.941 27.238-19.968 50.432-44.032 67.533-69.581 17.101 25.549 40.294 49.613 67.533 69.581 46.592 34.15 99.891 52.941 150.067 52.941 148.224 0 268.8-120.576 268.8-268.8 0-77.875-25.549-158.157-75.878-238.592-39.475-63.078-94.31-126.464-162.918-188.416-116.019-104.755-230.298-168.704-235.11-171.366-3.891-2.15-8.141-3.226-12.442-3.226zM268.8 806.4c-119.962 0-217.6-97.638-217.6-217.6 0-155.648 120.32-297.062 221.235-388.352 90.112-81.51 181.453-138.65 213.965-158.054 32.512 19.405 123.853 76.544 213.965 158.054 100.915 91.238 221.235 232.704 221.235 388.352 0 119.962-97.638 217.6-217.6 217.6-87.194 0-171.878-71.731-193.331-136.090-3.482-10.445-13.261-17.51-24.269-17.51s-20.787 7.066-24.269 17.51c-21.453 64.358-106.138 136.090-193.331 136.090z" />
</font>
</defs>
</svg>
